<?xml version="1.0" encoding="utf-8"?>
<!-- Generator: Adobe Illustrator 26.0.3, SVG Export Plug-In . SVG Version: 6.00 Build 0)  -->
<svg version="1.1" id="Layer_1" xmlns="http://www.w3.org/2000/svg" xmlns:xlink="http://www.w3.org/1999/xlink" x="0px" y="0px"
	 viewBox="0 0 1080 1080" style="enable-background:new 0 0 1080 1080;" xml:space="preserve">
<style type="text/css">
	.st0{fill-rule:evenodd;clip-rule:evenodd;}
</style>
<g>
	<path class="st0" d="M116.89,720.4c-0.86,0.22-2.02,0.86-2.27,1.58c-0.49,1.38-0.43,2.95-0.79,6.13
		c-1.86,4.01,2.68,7.79,4.39,12.36c0.2,0.54,2.19,1.11,2.57,0.77c3.78-3.29,7.45-6.72,10.99-10.27c0.5-0.5,0.56-2.17,0.12-2.8
		C128.26,723.02,124.12,718.59,116.89,720.4z"/>
	<path class="st0" d="M101.43,734.74c-1.03-3.42-3.75-5.8-7.91-5.28c-0.91,0.29-1.96,0.4-2.66,0.95c-0.25,0.2,0.1,1.74,0.6,2.19
		c3.14,2.81,5.11,5.91,4.21,10.42c-0.38,1.9-0.17,3.99,0.14,5.93c0.11,0.67,1.33,1.58,2.11,1.64c3.82,0.3,8.11-4.82,6.15-7.67
		C102.25,740.26,102.25,737.49,101.43,734.74z"/>
	<path class="st0" d="M151.79,765.78c-0.78-1.01-1.64-2.78-3.29-1.81c-1.22,0.72-3.05,2.89-2.87,3.13c2.59,3.48-1.14,6.2-0.87,9.29
		c0.04,0.41,0.56,0.78,1.08,1.47c1.09-0.62,2.23-1.27,3.37-1.92C154.79,772.79,155.42,770.46,151.79,765.78z"/>
	<path class="st0" d="M85.45,687.66c-0.54-0.12-1.81,0.74-1.92,1.31c-0.28,1.45-0.09,3-0.09,4.5c0.09,0,0.18,0,0.27,0
		c0,2.02-0.15,4.05,0.05,6.04c0.13,1.3,1.04,1.77,1.83,1.27c2.75-1.73,4.27-4.1,4.03-7.5C89.47,691.22,87.47,688.12,85.45,687.66z"
		/>
	<path class="st0" d="M333.76,893.51c0.07-0.03-0.05-0.83-0.27-1.13c-3.18-4.25-8.15-5.06-12.33-7.21
		c-0.93,1.36-1.78,2.07-1.88,2.87c-0.1,0.81,0.39,2.34,0.9,2.47c1.22,0.31,2.4,0.67,3.6,1.02c0.54,0.67,1.16,1.32,2.11,1.89
		c0.4-0.47,0.26-0.88-0.01-1.28c1.8,0.61,3.55,1.33,5.24,2.29C331.67,894.74,332.89,893.9,333.76,893.51z"/>
	<path class="st0" d="M108.93,757.06c-1.66-0.57-3.87,1.08-4.06,3.03c-0.36,3.64,0.63,5.62,2.88,5.79c1.58,0.12,5.38-2.44,5.75-3.87
		C113.84,760.68,111.22,757.85,108.93,757.06z"/>
	<path class="st0" d="M137.94,746.28c-0.18-0.38-0.66-0.62-1-0.92c-0.32,0.38-0.9,0.75-0.91,1.14c-0.09,3.87-0.12,7.74-0.08,11.61
		c0,0.42,0.45,1.09,0.79,1.17c0.35,0.08,0.86-0.4,1.24-0.7c3.9-3.1,4.02-3.87,1.62-8.35C138.95,748.96,138.55,747.57,137.94,746.28z
		"/>
	<path class="st0" d="M119.89,709.86c-0.05-0.42-0.64-1.12-0.93-1.1c-2.32,0.2-4.9,3.98-4.55,6.66c0.06,0.43,0.58,0.8,0.88,1.2
		C117.37,716.33,120.19,712.28,119.89,709.86z"/>
	<path class="st0" d="M120.75,773.94c-0.39,1.26-0.96,2.62,0.63,3.64c0.62-0.37,1.9-0.94,1.85-1.12c-0.36-1.22-1-2.36-1.55-3.52
		C121.35,773.27,120.87,773.55,120.75,773.94z"/>
	<path class="st0" d="M364.9,964.58c0.86,0.01,1.72-0.7,2.58-1.09c-0.85-0.42-1.69-1.15-2.54-1.16c-0.25,0-0.49,0.14-0.74,0.23
		c-1.42-0.85-3.34-1.7-3.83-0.82c0.79,0.43,1.08,0.96,0.65,1.61c1.1,0.48,2.04,0.77,2.81,0.87
		C364.18,964.41,364.54,964.58,364.9,964.58z"/>
	<path class="st0" d="M191.75,268.36c-0.52,0.29-0.69,1.2-0.94,1.96c0.75-0.19,1.59-0.32,1.97-0.8
		C193.36,268.76,192.6,267.88,191.75,268.36z"/>
	<path class="st0" d="M190.8,270.33c-0.14,0.04-0.29,0.06-0.41,0.11c0,0.1,0,0.21,0,0.31c0.1-0.01,0.2-0.03,0.29-0.04
		C190.73,270.59,190.76,270.45,190.8,270.33z"/>
	<path class="st0" d="M188.5,272.62c0.1,0.4,1.12,0.57,1.88,0.81c0-0.89,0.01-1.79,0.01-2.68
		C189.28,270.88,188.1,271.05,188.5,272.62z"/>
	<path class="st0" d="M190.38,273.42c0,0.13,0,0.25,0,0.38c0.06-0.01,0.12-0.02,0.18-0.03c0.04-0.08,0.07-0.18,0.11-0.26
		C190.59,273.48,190.48,273.45,190.38,273.42z"/>
	<path class="st0" d="M87.5,357.21c-0.09,0.02-0.18,0.91-0.05,0.98c0.61,0.32,1.27,0.54,1.93,0.78
		C89.24,357.94,89.13,356.9,87.5,357.21z"/>
	<path class="st0" d="M89.38,358.96c0.02,0.17,0.04,0.34,0.08,0.51c0.15,0.03,0.28,0.01,0.43,0.04c-0.01-0.14-0.11-0.23-0.1-0.38
		C89.64,359.07,89.51,359.01,89.38,358.96z"/>
	<path class="st0" d="M75.79,380.28c0.36-0.33,0.71-0.67,1.07-1c-0.55-1.46-1.28-1.52-2.02-0.1
		C74.76,379.34,75.46,379.9,75.79,380.28z"/>
	<path class="st0" d="M66.21,393.89c-0.39,0.08-0.58,1.14-0.82,1.92c0.87,0,1.75,0.01,2.62,0.01
		C67.8,394.8,67.73,393.57,66.21,393.89z"/>
	<path class="st0" d="M62.3,398.87c-0.14,0-0.27,0-0.4,0l0,0c-0.03,0.17-0.05,0.34-0.07,0.52c0.14-0.06,0.28-0.12,0.43-0.18
		C62.25,399.08,62.29,398.99,62.3,398.87z"/>
	<path class="st0" d="M64.95,396.19c-1.59,0.2-2.54,1.03-2.65,2.68c0.88,0.01,1.76,0.02,2.65,0.03
		C64.95,398,64.95,397.09,64.95,396.19z"/>
	<path class="st0" d="M61.82,399.39c-0.61,0.24-1.23,0.46-1.8,0.78c-0.13,0.07-0.04,0.91,0.03,0.92
		C61.56,401.31,61.69,400.35,61.82,399.39z"/>
	<path class="st0" d="M241.12,872.56c0.3-0.28,0.82-0.55,0.84-0.85c0.02-0.3-0.47-0.62-0.73-0.94c-0.3,0.44-0.59,0.89-0.88,1.33
		C240.6,872.25,240.86,872.4,241.12,872.56z"/>
	<path class="st0" d="M288.94,886.89c0.46,1.16,1.11,1.36,1.66,0.59c0.16-0.22,0.07-0.63,0.09-0.96c-0.28-0.17-0.65-0.54-0.84-0.46
		C289.48,886.22,288.88,886.74,288.94,886.89z"/>
	<path class="st0" d="M344.09,957.3c-0.04,0.29,0.5,0.66,0.78,0.99c0.36-0.3,0.71-0.6,1.07-0.9c-0.31-0.34-0.62-0.69-0.93-1.04
		C344.68,956.67,344.14,956.95,344.09,957.3z"/>
	<path class="st0" d="M400.93,963.44c-0.23-0.29-0.62-0.99-0.76-0.94c-1.41,0.48-1.46,1.21-0.13,1.9
		C400.14,964.45,400.62,963.78,400.93,963.44z"/>
	<path class="st0" d="M894.43,185.27c1.5-2.49,0.69-6-2.84-10.14C888.94,177.23,893.98,181.94,894.43,185.27z"/>
	<path class="st0" d="M546.98,58.79c-6.06-0.57,7.41-1.6,0.16-2.91c0.18,2.11-6.14,0.15-8.67,0.59
		C537.19,58.82,545.63,60.89,546.98,58.79z"/>
	<path class="st0" d="M346.13,76.29c-4.45,1.47-4.9,3.43-3.5,5.6C347.03,80.42,347.5,78.47,346.13,76.29z"/>
	<path class="st0" d="M609.05,63.39c-3.17,0.28-5.39,1.35-9,1.24c0.09-2.14-21.47-6.99-25.6-3.6c11.21,1.63,21.44,2.88,31.76,4.84
		c5.18,0.9,10.41,1.81,15.84,2.75c5.41,1.09,11.02,2.22,16.99,3.43c-2.35-3.44-8.1-4.54-14.08-5.35
		C618.96,65.91,612.67,65.76,609.05,63.39z"/>
	<path class="st0" d="M569.9,54.75c-5.8-0.55-6.22,2.59-12.37,1.77c2.18,2.42-4.7,3.24-0.3,3.87
		C559.47,57.17,567.27,57.75,569.9,54.75z"/>
	<path class="st0" d="M65.85,391.39c1.75-7.1,3.94-11.54,5.57-15.4c-1.23-0.33-3.03,3.89-4.36,8
		C65.73,388.1,65.39,392.24,65.85,391.39z"/>
	<path class="st0" d="M297.29,179.45c2.68-1.8,3.84-0.38,6.76-2.7C303.68,174.52,295.53,177.86,297.29,179.45z"/>
	<path class="st0" d="M632.75,18.33l3.75,0.89c0.51-1.13-1.14-1.74-0.76-2.84c-2.36-0.47-4.28-0.57-5.26,0.09
		C634.17,17.15,634.74,17.64,632.75,18.33z"/>
	<path class="st0" d="M664.48,92.19l5.32,1.86C671.22,91.45,664.83,90.06,664.48,92.19z"/>
	<path class="st0" d="M688.22,71.06c-0.75-0.91-6.78-3.87-7.9-2.79C683.43,68.8,685.89,72.3,688.22,71.06z"/>
	<path class="st0" d="M692.8,100.2c-3.28-1.27-6.02-1.87-7.89-1.48C687.49,99.14,692.8,102.81,692.8,100.2z"/>
	<path class="st0" d="M706.79,98.79c1.37-0.78-1.02-2.23-3.23-3.04c-2.27-0.66-4.31-0.73-2.05,0.76
		C703.14,95.05,703.89,98.36,706.79,98.79z"/>
	<path class="st0" d="M708.87,99.74c4.49,2.41,5.54,1.58,8.34,3.86C718.85,101.79,709.02,98.01,708.87,99.74z"/>
	<path class="st0" d="M762.99,125.23c-2.25-1.9-3.09-1.94-4.03-4.64c-0.42,0.74-2.03-0.51-2.61-0.04
		C757.01,121.77,760.58,125.87,762.99,125.23z"/>
	<path class="st0" d="M795.4,80.58c-2.75-1.11-8.08-6.17-8.38-3.49C790.21,78.85,794.32,82.07,795.4,80.58z"/>
	<path class="st0" d="M793.37,158.24c3.37,2.62,6.13,5.21,8.31,7.72C802.32,164.13,795.78,158.52,793.37,158.24z"/>
	<path class="st0" d="M841.09,158.67c2.33,1.97,4.5,3.49,6.21,3.78C846.4,159.99,842.67,158.24,841.09,158.67z"/>
	<path class="st0" d="M854.01,195.55c-2.27-2.33-6.2-4.93-5.06-6.41c1.76,1.09,4.48,5.14,5.57,4.2
		c-3.95-7.05-13.26-8.87-20.13-13.82C837.81,184.85,849.44,193.34,854.01,195.55z"/>
	<path class="st0" d="M937.87,230.2c2.12,2.99,4.39,1.49,4.09,0.07l-2.28-3.04C938.14,227.78,939.96,229.93,937.87,230.2z"/>
	<path class="st0" d="M958.86,286.4c-5.43-5.02-3.73-8.28-8.84-13.28C949.74,275.45,956.07,288.33,958.86,286.4z"/>
	<path class="st0" d="M984.31,336.9c0.99-0.54,1.93-0.58,2.81,0.11c-3.44-6.19-4.32-11.87-8.2-16.64c0.44,2.05-3.75-0.71-5.02-4.39
		c-0.6,0.51-1.73,0.63-1.2,1.97C977.05,325.26,983.02,326.52,984.31,336.9z"/>
	<path class="st0" d="M989.76,333.09l2.26,5.82C994.54,339.9,990.88,330.49,989.76,333.09z"/>
	<path class="st0" d="M988.14,348.66c0.82-0.57,2.36-0.51,1.95-2.16c-3.42,1.17-0.06-6.9-3.85-6.41
		C987,343.13,987.25,344.16,988.14,348.66z"/>
	<path class="st0" d="M949.74,812.49c-2.2,1.27-1.17,3.06-4.19,6.3c0.85,2.56,5.51,0.18,5.06-2.77c-1.02,1.13-2.21,1.99-3.24,2.45
		C946.96,817.29,950.75,813.5,949.74,812.49z"/>
	<path class="st0" d="M758.25,984.42c4.74-2.99,9.59-5.15,9.1-6.94c-3.43,3.56-9.85,4.56-11.98,6.94
		C756.78,983.79,758.13,983.25,758.25,984.42z"/>
	<path class="st0" d="M641.27,1028.97c2.81-0.95,5.13-2.02,5.61-3.48C643.65,1026.37,639.05,1026.91,641.27,1028.97z"/>
	<path class="st0" d="M530.01,1047.9c-9.36,1.26-14.07,0.82-21.62,1.3c6.23,1.35,14.91,2.33,20.4,0.05
		C526.51,1049.04,529.31,1048.53,530.01,1047.9z"/>
	<path class="st0" d="M517.18,1043.65c2.73-1.41,7.49-2.17,9.93-4.03C521.29,1040.3,518.31,1040,517.18,1043.65z"/>
	<path class="st0" d="M507.1,1043.98c2.56-1.5,5.19,2.33,8.83,0.29c0.18-1.61-0.7-2.71-2.56-3.32c-3.46,0.69-6.72,1.5-11.31,1.55
		c1.08,2.33,0.14,1.59,1.24,3.93c-2.05-0.27-3.43,0.75-1.27,1.25c1.6-1.71,7.45-1.12,8.87-2.92
		C509.4,1044.6,507.31,1044.74,507.1,1043.98z"/>
	<path class="st0" d="M486.63,1050.24c6.31,3.97,0.28,0.87,5.13,0.25c3-0.39,7.25,1.47,8.98-0.93
		C494.83,1050.17,492,1048.94,486.63,1050.24z"/>
	<path class="st0" d="M447.01,1046.44c4.28,0.38,15.23,1.62,14.14,0.62C455.46,1046.22,450.26,1045.67,447.01,1046.44z"/>
	<path class="st0" d="M429.99,1038.06c3.15,0.41,4.08-0.61,6.31,0.95C437.88,1036.63,429.16,1035.31,429.99,1038.06z"/>
	<path class="st0" d="M417.94,1025.64c4.27,0.06,5.18,1.33,7.49,0.6C424.61,1025.59,417.21,1023.18,417.94,1025.64z"/>
	<path class="st0" d="M403.48,952.94c3.27,0.83,6.52,3.2,9.49,2.36l0.42-1.9C409.15,952.32,407.01,953.31,403.48,952.94z"/>
	<path class="st0" d="M353.71,963.47c3.91,0.48,5.61,2.38,7.78,2.1c-0.8-0.43-1.09-0.96-0.67-1.61
		C357.54,962.77,353.85,961.06,353.71,963.47z"/>
	<path class="st0" d="M329.35,974.98c1.18,0.69,1.45,1.44,1.71,2.19c5.31,0.52,7.02,1.22,11.01,1.33c-4.89-2.28-5.66-1.85-8.72-3.9
		C334.22,977.47,329.47,973.42,329.35,974.98z"/>
	<path class="st0" d="M311.88,893.69c3.2,1.56,4.88,3.16,6.84,4.76c2.14-4.98,7.41,5.51,10.73,1.66c-2.37-0.6-7.69-1.85-5.93-4.25
		c3.96-0.33,8.9,6.01,10.1,2.66c-6.23-2.25-10.29-3.9-14.27-7.94c2.49,4.86-3.64,0.95-1.52,5.1
		C315.81,894.96,312.14,891.13,311.88,893.69z"/>
	<path class="st0" d="M200.49,888.12c-2.88,1.7,1.18,4.54,3.62,4.93C201.05,891,203.52,890.18,200.49,888.12z"/>
	<path class="st0" d="M160.81,871.01c3.28,1.03-4.28-8.07-6.56-8.94c-0.05,2.81-1.24,5.27,0.01,8.57c1.67-0.32,2.97-1.96,5.25-0.06
		c0.27,1.52,7.68,10.57,8.83,8.42C166.34,875.77,163.61,873.8,160.81,871.01z"/>
	<path class="st0" d="M345.45,920.48c0.09,0.01,0.15,0.04,0.23,0.05c-0.06-0.05-0.13-0.11-0.19-0.16L345.45,920.48z"/>
	<path class="st0" d="M572.9,1014.69l0.07,0.54c2-0.49,3.99-0.97,5.87-1.43C576.85,1014.1,574.88,1014.4,572.9,1014.69z"/>
	<path class="st0" d="M1039.59,525.71c-0.84-13.89-1.66-27.55-2.45-40.7c-0.22-3.28-0.45-6.53-0.67-9.75
		c-0.44-3.2-0.87-6.37-1.3-9.5c-0.88-6.26-1.73-12.35-2.56-18.24c-3.13-4.71-2.59-22.56-8.72-26.62c-0.34-7.1-0.41-9.61-3.46-16.1
		c4.23,1.82-1.65-7.61,1.49-7.03c-2.83-5.29-1.67-12.73-4.62-14.55c1.44,7.75,4.52,12.16,2.13,15.27
		c-1.18-7.39-4.94-14.52-3.5-20.18c-2.19-5.46-8.52-14.88-7.67-20.19c-3.01,0.46-1.81-6.63-4.75-9.04c-1.2-0.05-0.87,2.37-1.79,0.73
		c-3-4.12-2.58-10.88-5.4-14.14c0.48,1.46,0.9,2.86-0.28,2.86c-1.82-3.4-0.31-3.9-2.14-7.3c-2.15,0.46,1,5.51,0.95,7.82
		c2.82,1.63,8.09,15.1,7.27,17.37c-2.54-3.63-4.47-4.37-4.13-9.17c-1.95-0.17-0.32,2.84-1.51,3.33c1.47,3.89,3.46,3.22,4.88,7.49
		c-1.9-0.14-3.55-2.47-5.36-3.25c1.4,4.26,3.56,2.22,5.02,6.07c-0.71,1.55-3.31-2.74-2.42,0.93c0.54,0.35,0.89,0.84,1.16,1.39
		c-0.39,0.1-0.77,0.14-1.16,0.33c-0.79,0.4-1.58,0.82-2.36,1.23c0.14-0.54,0.44-0.93,0.99-1.11c-2-3.19-1.63-3.88-1.99-7.21
		c-1.47,0.63-0.28,5.86,0.5,8.59c-1.69,0.89-3.37,1.78-5.1,2.57c-0.12,0.05-0.45-0.17-0.79-0.49c-0.28-1.11-0.65-2.23-1.1-3.36
		c-0.11-1.33-0.32-2.57-1.49-3.55c-1.46-3.46-2.61-6.77-1.04-9.41c-4.07-2-8.66-17.64-8.16-21.82c-1.53,0.29-3.31-1.72-4.79-4.2
		c0-0.89,0.03-1.77,0.15-2.68c0.17-1.25-0.81-1.65-2.16-1.35c-0.89-2.25-1.28-4.16-0.74-4.43c-1.88-1.75-3.76-3.62-5.64-5.59
		c-0.63-1.52-1.23-3.04-1.91-4.56c0.14,0.03,0.29,0.11,0.43,0.12c-2.34-5.1-4.82-9.8-7.38-14.38c-0.05-0.08-0.11-0.16-0.17-0.25
		c-5.61-10.46-12.17-20.6-19.44-29.95c-2.52-4.27-5.1-8.76-7.85-13.75c-0.86,0.71-1.9,0.23-3.01-0.8
		c-0.51-4.89-5.59-9.86-9.69-14.23c-0.96-3.36-2.59-6.58-4.69-9.66c0.17-0.25,0.33-0.5,0.59-0.72c-1.46-1.89-2.09-2.15-2.52-1.93
		c-0.62-0.81-1.26-1.6-1.93-2.39c-2.75-3.36-5.76-6.63-8.6-9.93c-2.97-3.18-5.77-6.38-7.98-9.74
		c-6.89-10.78-13.72-21.83-21.48-32.31c-8.05-10.15-17.14-19.65-29.15-25.7c-2.35-1.92-2.49,1.43-4.66-0.08
		c-6.99-6.55-16.34-12.53-25.73-18.85c-9.78-5.75-19.56-11.98-28.86-17.35c-12.95-8.05-24.27-18.37-38.85-23.76
		c-8.55-2.9-16.25-4.92-23.47-5.58c-7.28-0.52-13.98,0.11-20.32,2.1c-12.64-5.33-30.57,0.51-41.97-8.23
		c-2.84,0.35-3.1,3.28-7.77,1.75c-3.36-0.71-2.98-2.23-4.54-3.26c-0.77,3.54,1.17,3.14-1.5,5.61c9.81,0.81,14.1,2.59,23.02,1.7
		c2.18,0.96,2.77,2.28,6.32,3.11c19.81,0.32,43.5,2.15,68.41,10.53c23.97,8.41,43.87,25.67,61.43,30.66
		c3.23,2.62-0.21,4.54,1.72,7.02c9.62,2.62,13.5,11.38,23.06,17.15c6.56,4.31,14.69,4.97,21.82,10.56c7,5.91,11.84,11.7,16.83,17.74
		c4.82,6.24,9.73,12.8,17,20.4c0.04,0.43,0.15,0.86,0.24,1.29c-3.49-2.89-5.99-5.67-11.51-9.93c0.77-1.34,2.89,2.02,3.83,1.24
		c-4.02-4.19-7.59-6.81-10.68-9.48c-3.04-2.71-5.53-5.51-7.77-9.75c-1.67,2.6-6.19-2.62-8.34-1.38c4.75,4.51,10.8,10.13,10.77,14.9
		c-4.64-2.54-3.88-6.74-6.64-6.87c2.89,5.52,6.34,8.47,10.35,11.3c4.01,2.81,8.12,5.94,12.7,11.15c-0.6,0.66-1.39,0.59-2.19,0.49
		c2.34,4.21,7.07,6.99,10.63,9.56c0.76,1.21,1.67,2.36,2.51,3.54c-0.6-0.37-1.24-0.68-1.99-0.82c0.8,1.63,1.73,3.31,2.36,4.87
		c-0.67-0.4-1.29-0.63-1.7-0.56c0.82,0.85,1.6,1.68,2.28,2.49c0.18,0.85,0.24,1.66-0.01,2.36c-6.07-3.33-11.72-4.94-17.27-6.27
		c-0.81-1.24-1.46-2.42-1.88-3.54l-1.39,1.35c0.81,0.67,1.38,1.27,1.81,1.83c-0.8-0.19-1.61-0.38-2.41-0.56
		c-0.36-0.36-0.73-0.77-1.1-1.2c0.7-0.7-0.63-3.8-1.57-1.68c1.08,1.06,1.3,1.86,0.88,2.46c-0.01,0-0.02,0-0.03-0.01
		c-1.91-1.13-4.15-1.85-5.64-3.36c-1.66-1.67-2.25-4.34-3.69-6.29c-1.93-2.63-7.63-2.58-8.92,0.38c-0.43,0.99-0.91,1.87-1.42,2.72
		c-1.72-0.91-3.48-1.95-5.29-3.14c0.7-3.24,0.2-6.52-1.2-9.77c-0.21-0.49-1.74-0.52-2.67-0.56c-0.38-0.02-0.99,0.41-1.12,0.78
		c-0.06,0.15-0.13,0.34-0.19,0.52c-2.66-1.14-5.41-2.68-6.08-5.9c-0.78,0.81-1.11,1.71-0.82,2.72c2.06,1.36,4.06,2.55,6.43,4.85
		c-0.02,0.24,0,0.43,0.1,0.54c1.14,1.16,1.71,2.44,2.11,3.76c-5.39-5.2-10.48-9.53-15.45-12.8c-1.15-0.73-2.27-1.4-3.38-2.05
		c0.15-0.14,0.3-0.28,0.45-0.42c-0.31-0.38-0.61-0.76-0.92-1.15c-0.27,0.27-0.63,0.53-0.82,0.81c-3.6-2.04-7.04-3.68-10.38-5.05
		c-1.22-1.26-2.35-2.46-3.29-3.52c-1.2-0.88-2.56-1.69-3.95-2.49c-20.13-18.35-46.55-36.18-75.43-49.21
		c-31.61-14.53-65.52-23.39-93.89-26.49c-6.45-3.04-12.57-5.32-19.27-6.68c-6.68-1.46-13.84-2.49-22.43-2.51
		c-8.79-7.87-25.98-8.96-42.76-8.08c-4.19,0.23-8.37,0.46-12.43,0.68c-4.05,0.32-7.97,0.68-11.66,0.82
		c-7.37,0.23-13.81-0.01-18.55-1.62c-8.02,10.01-34.99,7.54-44.5,4.2c-1.17,3.57-5.08,5.19-9.76,5.81
		c-4.68,0.65-10.1,0.62-14.34,0.31c-0.32-1.39,6.26-4.36-0.57-2.85c-3.26,0.36-2.96,1.93-4.48,2.87c-3.39-1.55-7.57-2.19-9.6-4.83
		c-6.2,0.82-6.59,3.32-12.77,4.16c1.14-2.27,1.77-4.71,5.33-6.32c8.52-3.46,10.47-0.75,15.44-0.6c-0.71-2.33-3.81-2.33,0.85-4.13
		c3.42,5.47,10.4-3.58,15.64,0.89c-3.04,0.73-5.39,1.7-6.24,3.2c6.25-2.23,13.86-4.34,19.41-6.18c-1.77,0.3-4.31,0.18-1.81-0.72
		c-30.29-1.15-58.59,4.32-85.23,13.62c-26.69,9.35-51.82,22.5-77.06,38.11c-3.95-0.44-9.72,2.2-15.26,4.46
		c-13.34,11.28-23.53,18.25-21.26,29.3c16.35-11.8,28.52-22.72,57.62-37.39c7.11-0.92,13.36,0.14,17.04,4.6
		c-21.17,14.06-48.12,22.07-66.35,38.75c-2.57,2.41-2.9,4.36-5.48,6.38c-15.76,12.58-24.99,17.3-36.06,25.63
		c-21.5,16.21-39.6,38.83-57.08,59.01c-3.78,4.48-11.06,6.47-11.55,13.98c5.27-5.19,10.66-10.67,15.21-16.15
		c4.65-5.4,8.87-10.5,11.55-15.14c5.94-4.84,13.95-11.35,21.57-18.65c8.1-6.85,15.93-14.46,22.9-20.17c4-2.22,7.74-4.48,11.28-6.8
		c3.63-2.22,7.13-4.43,10.48-6.75c6.64-4.73,13.11-9.34,19.78-14.1c13.25-9.58,27.69-19.47,47.42-27.98
		c4.36,3.53,8.39,0.3,14.96-2.35c2.12,5.36,7.83,5.18,15.13,2.54c3.33-3.14-4.12-2.46-0.59-5.07c4.82-0.3,9.39-0.33,11.66,3.25
		c-3.8,1.57-7.87,3.98-10.26,3.58c3.24,3.61,11.52-0.78,13.71,4.44c-6.64,3.6-12.78,7.68-18.73,11.72
		c-5.79,4.37-11.44,8.63-16.96,12.96c-10.98,8.82-21.72,17.28-34.31,24.51c-4.64,0.08-8.51-1.93-13.6-0.9
		c-0.11,5.09,10.02,0.59,13.52,3.35c-2.58,3.8-6.61,7.53-10.3,11.44c-1.1,1.21-2.16,2.42-3.18,3.62c-0.25,0.06-0.48,0.14-0.73,0.2
		c-4.74,1.11-10.21,2.74-12.32,7.74c-0.36,0.86-0.81,1.58-1.24,2.35c-3.61,2.71-6.84,5.46-9.81,8.24c-0.18,0.06-0.33,0.16-0.52,0.22
		c-0.31,0.44-0.65,0.8-0.99,1.18c-0.57,0.55-1.19,1.1-1.74,1.66c-3.84,2.98-8.71,3.11-13.65,3.04c-1.75-0.02-2.64,1.02-3.15,2.62
		c-0.3,0.93-0.74,1.91-1.39,2.61c-1.56,1.67-2.9,4.65-5.76,1.52c-2.68,0.59-4.05,2.65-4.96,4.9c-1.66,4.09-3.94,7.03-8.9,6.72
		c-0.9-0.06-2.14,0.31-2.73,0.95c-3.4,3.68-8.47,5.96-10.05,11.15c-1.03,3.38-3.71,2.64-5.98,3.06c-0.38,0.85-0.67,2.01-1.25,2.18
		c-7.51,2.26-13.18,7.12-18.5,12.58c-2.79,2.86-5.45,5.69-9.47,7.34c-5.4,2.21-11.79,4.23-10.77,12.48
		c0.13,1.06-1.64,2.48-2.71,3.55c-1.8,1.8-3.69,3.52-5.64,5.16c-0.97,0.81-1.88,2.84-3.51,0.92c-1.09-1.28-3.79-2.06-1.71-4.64
		c0.6-0.74,1.07-1.79,1.1-2.71c0.03-0.89-0.6-1.79-0.94-2.69c-0.43,0.28-0.87,0.54-1.28,0.84c-3.34,2.5-5.45,6.17-5.17,9.97
		c0.14,2,0.72,3.4-0.86,4.93c-2.55,2.45-4.78,5.24-8.87,5.19c-4.86-0.06-1.3,2.7-1.7,4.33c-0.78,3.23-2.6,7.38-5.23,8.74
		c-2.75,1.43-4.64,3.32-6.11,5.49c0.6-2.93,1.3-5.83,2.46-8.64c6.23-17.27,21.37-35.78,27.55-52.89c7.56-2.52,1.5-5.08,9.85-11.34
		c-1.01-2.23-2.22-6.4-4.69-5.19c-1.1-0.32-2.29,0.7-3.48,1.69c-3.68,9.64-9.51,15.15-11.86,24.23
		c-18.06,18.45-28.4,40.45-35.87,64.18c-0.66,0.11-1.33,0.16-2.04,0.05c0.08,1.02,0.58,1.73,1.32,2.21
		c-0.16,0.51-0.33,1.01-0.49,1.52c-0.66,2.28-1.28,4.59-1.91,6.89c-1.27,0.82-2.56,1.61-4.01,2.25c-2.61,1.15-4.36,3.45-4.42,7.05
		c-0.18,10.26-0.38,10.26-9.65,15.66c-0.74,0.43-1.59,0.66-2.4,0.95c-0.25,1.79-1.21,2.87-3,3.12c0.21,2.43,4.03,4.72-0.02,7.41
		c-2.06,1.37-3.9,3.39-5.21,5.51c-0.56,0.91-1.1,1.76-1.66,2.57c-0.02-0.38-0.07-0.71-0.19-0.98c-0.17,0.61-0.41,1.35-0.64,2.08
		c-0.84,1-1.83,1.91-3.25,2.66c-2.9,1.54-0.18,4.34,1.03,6.41c-4.75,5.76,0.11,14.19-5.5,19.7c-0.06,4.07,0.61,8.33-0.38,12.16
		c-1.11,4.31-3.32,8.26-2.58,13.01c0.54,3.48-1.36,5.61-4.75,6.64c-0.58,0.18-1.34,2.04-1.05,2.49c2.14,3.25,0.74,6.34-0.09,9.48
		c3.86,4.83,2.95,10.64,2.76,16.06c-0.19,5.39,1.48,11.21-2.69,16.11c-0.79,0.93,0.06,3.04,1.64,3.66c1.92,0.76,3.86,1.23,3.77,3.92
		c-0.07,2.03-0.01,4.07,0.13,6.1c0.55,8.42-1.18,17.11,3.07,25.14c0.53,1.01-0.28,2.87-0.77,4.24c-0.44,1.24-2.13,2.09-0.58,3.75
		c2.36,2.51,1.76,5.7,1.53,8.69c-0.49,6.39-0.4,9.31,1.04,11.9c2.17,3.93,3.82,8.16,7.55,11.13c1.48,1.18,3.18,3.15,3.26,4.83
		c0.21,4.62,1.16,8.89,3.36,12.92c-0.95,7.95,2.93,14.47,6.3,21.14c0.43,0.85,1.24,2.37,1.53,2.3c5.86-1.55,6.78,4.57,10.34,6.48
		c3.61,1.94,7.33,3.66,11.06,5.39c0.7,1.69,1.37,3.43,2.04,5.16c-0.24,0.54-0.07,0.95,0.5,1.28c0.64,1.7,1.24,3.47,1.84,5.24
		c-2.16,2.21-3.61,4.26-1.33,8.17c2.41,4.14,3.3,9.22,4.51,13.97c0.4,1.6,0.82,2.99,2.29,3.46c2.17,0.69,3.4,1.17,1.99,3.9
		c-1.1,2.15-0.54,5.41-2,7.07c-3.55,4.04,1.16,6.28,1.5,9.4c0.18,1.6,2.78,1.46,3.85,0.62c2.78-2.2,5.13-4.95,7.89-7.18
		c2.66-2.15,1.17-3.69,0.3-6.13c-1.7-4.78-0.69-9.94,0.02-14.92c0.06-0.4,0.62-0.72,0.95-1.08c0.34,0.38,0.96,0.74,0.99,1.13
		c0.23,4.04,4.17,5.57,5.73,8.65c0.73,1.44-3,3.82-0.04,4.67c4.58,1.31,6.41,4.44,7.87,8.36c1.73,4.63,3.44,9.28,5.46,13.78
		c2.24,4.99,4.84,9.82,7.25,14.73c0.65,1.32,1.77,2.8,1.6,4.07c-0.7,5.19,1.74,8.98,5.41,11.81c3.87,2.98,3.93,6.75,3.79,10.88
		c-0.08,2.49-0.48,5.19,1.68,7.12c4.23,3.77,5.63,9.25,8.64,13.71c1.33,1.98,1.58-0.9,2.13-1.88c0.42-0.74,1.06-1.36,1.6-2.04
		c0.31,0.4,0.9,0.81,0.89,1.21c-0.14,5.91,1.54,11.8-1.65,17.7c-2.2,4.07-0.87,8.51,1.74,12.8c4.31,7.08,4.89,8.14,11.69,10.45
		c5.69,1.92,6.7,2.96,6.85,8.26c0.14,4.58-0.35,9.23,4.03,12.44c0.78,0.57,1.74,1.61,1.73,2.43c-0.07,7.08,5.24,10.65,9.53,14.84
		c3.23,3.15,5.79,7.22,10.66,8.29c2.18,4.65,6.2,7.86,9.2,11.81c3.35,4.41,10.17,4.74,11.78,10.84c0.26,0.99,1.44,0.72,2.02-0.6
		c0.39-0.89,0.33-1.99,0.76-2.86c0.15-0.31,0.35-0.61,0.55-0.9c2.39,1.88,5.03,3.79,7.59,5.67c-1.8-1.86-3.95-5.12-6.15-7.92
		c0.09-0.21,0.19-0.41,0.23-0.63c0.43-2.46-1.36-3.23-3.53-3.85c-1.33-0.38-3.01-1.56-3.43-2.77c-0.29-0.83-0.77-1.51-1.18-2.25
		c0.24,0.03,0.5,0.06,0.83,0.12c-0.56-0.66-1.02-1.02-1.44-1.28c-2.59-4.03-6.52-7-9.13-10.98c-1.91-2.9-5.17-5.82-5.22-8.78
		c-0.07-3.64,2.57-7.33,4.03-11c0.54-1.37,1.01-2.76,1.59-4.11c0.19-0.44,0.58-0.85,0.98-1.12c1.7-1.13,0.47-0.54,0.85,1.14
		c0.86,3.78,2.89,4.75,6.37,4.65c3.29-0.09,2.36,1.49,1.52,3.69c-1.3,3.41,2.42,1.76,3.6,2.82c1.11,0.99,1.35,2.01-0.1,2.1
		c-4.89,0.32-3.48,2.93-2.35,5.58c-2.52,2.37-2.57,5.31-1.85,8.38c0.11,0.46,0.46,1.05,0.85,1.21c0.28,0.12,0.9-0.3,1.22-0.62
		c1.06-1.07,2.65-2.07,2.97-3.36c1.48-5.78,4.95-8.05,10.83-8.04c2.23,1.17,4.41,1.74,6.16,1.23c-0.6,1.34-0.94,2.7-0.45,4.11
		c-0.36-0.23-0.61-0.4-0.71-0.49c0.32,0.38,0.66,0.71,0.99,1.06c0.34,0.65,0.8,1.31,1.59,1.99c0.83,0.72,0.57,2.18,0.01,3.57
		c-0.73-0.56-1.52-1.11-2.44-1.68c1.17-2.5-3.96-7.89-4.25-4.77c5.2,0.64-0.17,2.8,0.94,3.92c1.77,0.94,3.22,2.81,4.84,4.64
		c-1.42,3.09-2.71,6.25-3.76,9.48c-1.66,5.11-1.57,9.97,3.41,13.48c4.7,3.31,5.94,7.86,5.04,13.31c-0.25,1.49,0.06,3.06-0.14,4.56
		c-0.09,0.68-0.03,1.3,0.03,1.92c-0.77-0.14-1.58-0.32-2.49-0.63c0.92,0.94,1.83,1.61,2.72,2.19c0.11,0.45,0.21,0.9,0.37,1.33
		c-6-2.99-12.24-7.96-18.46-13.25c-4.85-4.28-9.83-8.67-14.49-12.78c-4.51-4.28-8.65-8.39-12.65-11.27c1.49,1.4-4.68-1.78-6.34-4.78
		c-0.03,5.29,8.78,14.63,10.11,21.88c3.68,3.38,5.86,6.17,6.31,8.94c1.59,1.25,3,2.05,4.12,2.27c-1.81,5.37,20.92,20.17,16.39,21.61
		c4.06,1.66,7.67,2.22,13.19,5.58c1.22-1.08-1.1-2.31,0.68-3.36c2.81,1.85,5.17,2.93,6.66,2.51c-5.92-3.93-8.41-1.69-13.65-4.58
		c2.01-1.4-0.28-4.15-2.76-4.36c-2.73,0.87,3.01,2.65,1.8,3.68c-1.53-1.03-1.64,0.86-3.56-0.96c3.91-1.52-8.07-5.53-9-9.72
		c0.81-0.89,1.85-1.32,3.35-0.75c6.36,5.73,4.34,1.53,8.01,2.62c3.11,1.86,1.53,3.25,3.65,5.01c2.24-2.22,7.5,1.03,11.18,3.96
		c5.29,1.85,10.76,2.23,15.87,2.85c0.28,0.25,0.5,0.45,0.8,0.72c2.92,2.61,6.36,4.64,9.6,6.87c0.79,0.55,1.84,0.06,1.93-1.23
		c0.19-2.97,1.46-6.41-0.66-8.8c-2.86-3.23-5.13-7.69-10.72-7.28c-1.25,0.09-3.08-0.84-3.82-1.88c-1.07-1.52-2.08-3.1-3.09-4.66
		c0.27-0.14,0.6-0.27,1.06-0.35c-0.84-0.36-1.48-0.76-2.07-1.17c-1.58-2.48-3.14-4.97-4.73-7.45c1.53-4.13,2.88-8.35,4.68-12.36
		c0.66-1.47,1.06-2.72,0.6-4.19c-0.12-0.39-0.82-0.98-0.84-0.96c-5.53,4.52-6.47-1.98-9.11-3.96c-1.95-1.47-2.03-3.9-1.91-6.2
		c3.31-1.12,4.58,5.2,8.33,3.7c0.33,0.33,0.65,0.67,1.03,0.96c2.07,2.95,5.65,6.61,9.67,9.45c4.17,3.03,8.19,5.72,10.09,7.4
		c-0.31-0.7,1.88-1.62,2.65-1.33c2.07,3.19,12.93,4.63,7.84,5.41c3.3,2.27,4.81,1.24,6.7,0.94c-8.12-3.15-14.43-8.39-20.31-9.05
		c-1-3.63-6.07-5.92-9.91-8.41c-1.46-0.96-2.78-1.87-3.71-2.75c0.62-0.09,1.4-0.45,2.02-0.67c0.2-0.07,0.38-0.83,0.24-1.09
		c-0.47-0.89-1.28-1.63-1.61-2.56c-0.49-1.38-0.94-3.02,0.75-3.93c1.31-0.7,2.74-0.98,4.18,0.1c1.11,0.84,2.38,1.47,3.6,2.17
		c0.17,1.49-0.05,3.27,0.7,4.36c0.68,0.98,2.46,1.45,3.82,1.66c2.03,0.31,4.12,0.05,6.09,0.67c-0.96,0.37-2.07,0.24,0.41,1.57
		c0.95-0.02,1.97,0.18,3.03,0.47c0.39,0.22,0.77,0.34,1.14,0.37c5.74,2,12.5,7.11,16.83,7.85c-2.67-1.72-5.24-3.39-7.81-5.06
		c1.54,0.05,3.08,0.07,4.62-0.01c0.37-0.02,0.8-0.54,1.01-0.93c0.1-0.18-0.2-0.73-0.46-0.9c-2.13-1.43-4.31-1.41-6.46-0.03
		c-0.22,0.14-0.33,0.45-0.46,0.74c-1.42-0.93-2.83-1.88-4.23-2.81c1.35-0.99,2.69-2.16,4.33-1.84c1.75,0.34,3.59,0.19,5.41,0.05
		c1.63,1.58,3.38,3.16,5.37,4.07c0.55-1.65,3.6,1.52,3.81-0.76c0.19-0.56,0.04-1.1-0.23-1.64c3.04,1.6,6.02,1.4,9.16,1.32
		c3.27-0.09,5.37,0.45,6.55,4.38c0.59,1.96,2.06,3.52,4.01,4.35c-0.28,1.15,0.81,2.54,2.31,3.89c-3.27-0.14-4.51,2.99-8.56,1.68
		c1.68,0.89,2.9,1.84,3.14,2.92c-1.29,1.01-4.12-0.38-5.07,1.17c3.77,0.94,7.87,3.4,11.57,6.87c1.33-3.17,6.68,0.65,8.2,1.67
		c-1.86,1.14-4.65,0.2-7.01-1.83c0.57,3.51-4.07-0.93-4.1,1.65c3.48,2.53,16.5,0.28,19.39,7.16c-8.28-4.18-11.04-2.03-16.65-3.03
		c-2.86,2.85-1.94,5.11,0.39,7.18l0.7-1.68c2.1,0.67,2.36,1.58,3.58,2.37c-0.81,0.26-1.6,0.53-0.48,1.2
		c-0.84,1.39-1.31-1.37-3.61-1.73c2.89,2.48,7.73,4.71,10.48,7.39c8.83,2.31,20.54,10.4,27.88,10.64
		c-2.9-1.83-10.14-3.17-10.03-6.95c3.11-2.3,5.39,3.61,7.37,1.23c-4.11-2.35-6.45-1.59-7.33-4.65c1.31,0.46,1.26-0.75,2.38-0.52
		c3.74,2.14,7.72,5.52,6.56,7.11c0.29-2.04,2.4,2.57,3.18,0.43c-1.31-1.04-0.83-2.49-1.04-3.79c-4.92-1.55-7.77-3.58-7.88-6.21
		c6.41-0.54,10.69,2.71,15.5,3.16c0.93,1.87,2.03,3.47,3.49,4.93c1.28,1.28,2.68,0.99,4.13,0.45c1.23-0.45,1.89-2.38,3.73-1.24
		c2.52,1.56,5.59,2.51,7.61,4.54c4.68,4.69,10.1,7.93,16.21,10.28c0.04,0.02,0.06,0.09,0.1,0.12c-0.17,0.25-0.39,0.47-0.43,0.79
		c-5.77-0.89-9.95,0.5-15.74-2.52c0.24,0.51,0.69,0.79,1.08,1.14c-3.64-0.75-7.37-1.48-11.19-2.14c-2.57,3.96,4.32-0.11,4.07,3.23
		c-2.46,0.58-10.42-1.17-10.59-3.86c1.82,0.82,3.73,1.66,5.49,2.18c-0.56-1.45-2.95-2.33-5.1-3.29c0.02-0.02,0.01-0.04,0.02-0.07
		c-0.11-0.01-0.2-0.04-0.31-0.06c-1.33-0.61-2.52-1.25-3.07-2.1c-0.74,0.36-5.86-0.38-3.56,0.82c0.11,0.01,0.29,0.1,0.41,0.12
		c-7.63-1.7-14.69-4.28-21.54-6.23c-8.64-2.87-16.84-5.16-25.38-5.16c-1.67-3.55-5.03-4.94-8.57-5.27
		c-9.04-2.69-16.1-8.17-20.79-12.79c-2.92,3.46-7.19-5.83-11.44-5.93c0.09-1.02-0.58-1.61,0.94-1.7
		c-9.09-0.63-9.67-10.56-19.22-13.73c3.67,2.76-5.24,0.94,1.98,4.96c2.02-0.5-1.09-3.5,1.34-2.22c-2.29,3.21,5.75,7.1,6.88,11.66
		c6.97-0.07,10.45,6.07,17.76,10.41c0.17,1.48,0.13,5.84,3.45,5.24c-4.14-1.64,1.78-1.67,2.41-2.42c3.94,1.85,7.2,4.49,10.43,6.9
		c-2.26,0.47-4.22,1.17-5.3,1.85c0.93,0.4,1.74,0.68,2.64,1.05c-0.04,0.72,0.05,1.05-1.24,1.92c4.26,2.91,5.33,1.21,7.77,1.51
		c-3.15,3.28,10.8,6.88,13.52,10.53c0.33-1.41,1.55-1.47,3.78-0.57c-0.73,0.71-1.65,0.55-0.69,1.81
		c20.08,6.97,38.57,12.28,56.96,17.81c6.78-0.49,25.26,2.04,23.15,8.3c22.32,7.13,46.28,8.53,71.38,10.7
		c8.46-3.01,18.87-1.47,26.58-0.75c-1.14-0.13,2.27-1.61,4.39-0.88c7.97,2.62-5.43,5.21-12.06,4.9c5.78-0.08,0.14,4.27-1.01,5.79
		c-12.64,1.25-22.92,0.66-34.07,1.86c-2.94-0.41-3.31-2.09-6.7-2.28c-4.98,2.3-9.89-2.45-15.74-2.57c-3.35-0.12-6.07,2.33-9.4,1.94
		c-3.72-0.43-6.68-3.61-9.84-4.05c-1.88-0.27-5.33,0.36-6.96,0.25c0.17,0.01,0.98-1.15,1.33-1.1c-3.37-0.51-5.31,1.02-8.21,0.69
		c-0.52-0.07-0.52-2.02-0.78-2.16c-3.82-2.02-9.37,0.16-13.84-0.65c-2.83-2.61,4.35-1.97-0.45-3.43c-0.75,2.08-5.38,0.57-7.36,1.52
		c-2.34-4.26-12.6-2.85-10.34-5.92c-3.87-0.46-9.32-0.87-14.46-2.08c-5.14-1.22-10.18-2.61-13.53-3.88c1.22,0.55,0.87,1.39,0.5,2.23
		c-8.14-2.93-10.8-3.84-15.63-4.2c0.21-0.62,1.13-0.41,1.52-0.83c-6.15-2.1-12-3.75-16.96-5.93c-4.95-2.21-9.29-4.32-12.82-6.41
		c-1.38,0.29-2.5,0.98-4.17,0.89c-1.95-2.77-2.92-2.42-5.51-1.88c-1.62-2.09,0.36-4.02-3.11-4.33c2.79,3.35-5.03-0.02-7.37-0.67
		c0.54-1.16-2.48-2.11-0.96-3.33c0.35-1.49,3.32,0.8,3.97-0.24c-6.9-3.12-7.73-1.39-9.58,1.11c2.03,2.15,6.25,4.17,8.59,6.3
		c3.54-2.37,13.85,4.98,15.82,7.48c-1.4-0.64-1.41,0.59-2.63,0.19c0.14-0.77,0.92-1.58-0.28-2.27c-7.78,0.76-13.49-4.44-21.6-8.88
		c1.33,3.48-2.87,0.8-4.15,3.01c8.38,4.07,16.95,7.9,24.48,11.7c-2.85-2.72,3.9-0.29,5.29-0.39c1.66,1.82,7.02,6.34,8.87,6.23
		c-1.22-0.68-0.79-1.48-0.35-2.29c3.31,4.92,10.59,6.08,16.59,9.27c-6.84-2.86-4.17-0.21-9.55-1.43c4.56,2.61,7.04,4.4,11.34,3.46
		l-0.64,1.83c5.6,0.88,12.12,3.76,19.05,6.74c3.47,1.47,7.02,3.04,10.63,4.25c3.66,1.03,7.34,1.85,10.91,2.22
		c-0.01,0.79-0.65,1.74,0.68,2.18c12.61,0.71,29.41,9.42,36,7.96c0.05,2.57-5.91,2.26-8.49,0.15c-0.04,4.6,7.31,2.86,10.41,2.77
		c-0.19,0-0.01,1.28-0.21,1.27c4.81,0.04,7.34-2.49,12.37-2.04c6.4,0.56,7.79,4.18,16.24,4.3c-2.16-3.37,8.71,1.01,11.96-0.34
		c-6.32-1.01-2.7-1.29,2.41-0.8c5.12,0.35,11.81,0.93,11.67,3.14c-3.92-0.41-4.56,1.2-7.24,1.56c6.54,0.09,3.42,0.85,4.58,3.48
		c5.33-0.44,5.89,1.4,9.52,1.76c-0.49-2.09-5.3-2.09-7.03-3.57c1.64,0.1,2.62-0.18,3.59-0.47c2.72,0.92,4.46,4.25,7.12,1.62
		c-0.14,1.12,0.2,2.02,1.12,2.64c-9.68,0.33-16.34,0.61-22.79,0.37c-6.43-0.7-12.68-1.92-21.49-4.44
		c-5.5,0.21-10.97-1.15-16.51-2.36c-5.54-1.22-11.17-2.13-17.04-1.9c0.11-1.22-3.8-1.36-3.15-2.74
		c-15.05-1.82-29.08-11.83-42.05-10.98c3.17,1.32,8.04,1.93,7.74,3.72c-3.66-0.84-20.33-4.64-15.34-7.72
		c-2.84-0.58-5.47-0.93-9.29-2.59c-2.61,1.97,5.86,2.18,5.09,3.86c-5.25-1.52-17.21-4.5-19.86-9.18
		c-10.48-3.43-19.14-7.77-27.02-11.52c-7.81-3.89-14.55-7.87-20.19-12.62c-2.14,2.65-1.51-2.35-3.71-3.3
		c-3.02-0.8-0.48,3.38-2.5,2.28c-1.04-0.6-1.48-0.25-2.39-0.64c-4.29-1.84-2.96-3.55-5.32-5.35c-2.12,0.84-6.95-2.7-10.98-4.99
		c1.63-4.69-7.35-6.46-11.38-9.12c-8.42-5.1-16.96-12.79-25.44-19.59c-8.31-7.04-16.59-13.23-22.41-18.33
		c8.12,9.33,12.65,10.1,18.93,18.63c6.51,3.19,12.84,8.17,19.25,13.44c6.56,5.04,13.49,9.95,20.34,13.78
		c-0.96,1.3,0.64,2.71,0.48,4.04c-1.7,0.11-4.43-1.47-6.17-1.42c3.36,3.65,16.4,6.74,21.39,14.12c1.55-1.5,4.41,1.45,6.77,2.82
		c5.51-2.18,21.75,5.84,27.66,9.56c-0.73,1.02-10.01-4.59-7.11-1.89c3.27,1.56,6.71,3.07,5.84,4.87c-2.09-0.56-6.16-3.75-6.89-2.5
		c3.14,2.53,10.83,4.77,7.35,7.71c4.49,2.61-0.56-2.97,4.32-0.85c0.05,0.57,0.65,1.12,1.98,1.62c0.31,3.41-3.21,1.98-5.06,2.66
		c4.38,3.91,5.67,1.57,6.33,0.77c2.85,3.2-3.85,0.94-1.42,3.61c4.38,3.28,9.72,5.25,12.25,6.18c-1.27-0.61-1.58-1.34-1.89-2.07
		c1.94,1.13,5.48-0.01,5.83,2.13c-1.41-0.41-3.28-1.32-3.72-0.67c5.92,4.07,17.08,6.38,20.07,10.64c3.14,0.19-1.53-2.6,1.95-2.05
		c7,1.48,5.43,4.28,9.86,6.15c0.9-0.68-0.45-3.68,2.06-2.71c4.03,1.85,11.8,2.14,10.25,4.93c-1.4,0.13-9.34-1.85-6.37-0.33
		c7.11,0.58,11.51,3.18,15.12,1.25c4.67,1.99-1.7,3.17,2.73,4.69c1.77,0.04,0.75-2.38,3.01-1.91c1.32,1.56,13.57,7.37,8.19,3.36
		c5.01,1.83,6.03,1.98,13.24,3.84c0.38-0.9,0-2.45,1.67-2.26c9.95,3.32,19.67,4.3,28.97,5.54c9.34,1.05,18.33,2.28,27.39,3.97
		c0.56-1.09-1.72-1.76,0.13-1.93c6.84,1.41,12.5,2.6,17.27,0.23c0.02,0.89-0.62,1.39-1.31,1.88c5.11-0.94,11.55,0.77,16.06,1.96
		c-3.44,2.45-9.79-0.03-11.26,4.08c8.69,0,12.48-5.21,22.4-3.7c1.67-1.43-3.22-2.53-0.06-2.59c3.77,0.88,4.82,0.74,7.38-0.57
		c-0.02,2.21,3.7,2.25,6.29,2.94c9.7-2.88,19.49,0.97,28.24-3.54c4.94,0.09,10.45,0.12,16.15-0.31c5.69-0.67,11.59-1.54,17.34-2.56
		c11.5-2.03,22.38-4.66,29.85-7.25c1.46,1.46,6.87-0.94,6.79,1.72c6.3-4.03,11.14-1.18,15.31-5.27c-1.49,0.31-2.9,0.55-2.75-0.62
		c2.72-1.28,3.06-1.22,8.19-2.84c0.41,0.94,0.47,2.19,2.95,1.22c2.65-5.02,13.38-3.67,19.33-4.65c-0.06-1.31-2.03-0.77-3.01-1.16
		c4.55-1.54,12.71-5.28,14.92-2.43c-2.75,1.75-5.03-1.12-6.06,1.51c1.7-0.43,1.81,0.85,2.99,0.97
		c11.48-8.08,29.27-13.57,37.65-16.29c3-1.17,3.46-3.85,4.77-4.41c3.53-1.53,7.55-0.27,13.1-4.17c-1.03,0.72,1.59-0.71,4.46-2.18
		c1.12-0.56,12.06-7.51,16.16-6.61c1.28,1.18-8.24,5.15-4.61,4.49c3.9-2.21,4.88-3.55,8.9-4.49c-1.26-1.23-0.15-2.56,1.61-3.54
		c1.7-1.09,4.01-1.9,5.31-1.85c-2.83,2.98-7.73,5.62-8.18,8.22c6.56-4.18,17.12-14.54,19.41-8.98c-0.33-0.57,1.44-1.83,2.14-1.31
		c-3.51,4.03-1.03,4.15-4.07,7.78c5.52-6.6,12.21-9.69,18.61-13.02c6.29-3.44,12.67-6.6,16.02-14.39c0.96,0.82-0.29,1.99,0.52,2.83
		c3.18-2.28,1.67-3.77,6.29-6.29c0.51,1.14,2,0.29,2.58,1.3c2.47-2.17,5.32-4.43,6.25-6.33c-4.28,3.59-7.02,3.95-9,2.73
		c7.28-4.25,8.67-9,16.75-11.11c-4.37,2.56-1.77,3.8-6.16,6.35c1.93,0.45,2.89,2.95,6.44-0.04c-0.44-0.87-1.86-1.57-0.63-2.77
		c1.08,2.69,15.1-6.37,20.25-11.29c-0.61-2.71-3.56,0.73-4.46-1.2c1.59-0.44,3.79-2.43,6.03-4.58c-0.89,2.93-0.41,2.23,1.68,3.71
		c3.4-2.31-0.15-2.74,2.44-4.84c1.55,1.91,5.83-3.51,7.82-2.78c2.59-5.34,5.01-5.14,5.58-3.4c2.31-4.57,4.13-5.42,5.15-9.22
		c2.45-0.54,0.5,0.66,1.85,1.82c3.49-4.21,3.31-3.62,6.94-5.67c0.92-1.83,0.88-3.45,1.66-5.4c2.49-0.77,3.81-3.51,2.28,0.38
		c10.46-9.49,8.01-17.83,13.6-21.8c-3.1-3.69,2.13-6.76,6.5-9.31c-0.02-2.22-4.03,0.9-2.02-1.63c3.34-1.74,5.28-3.92,7.78-8.19
		c2.28,0.4,0.39,2.8,1.04,3.98c0.85-2.88,4.23-5.36,4.05-6.42c-1.38,1.23-2.65,1.85-3.82,1.85c1.8-2.35,1.34-3.62,4.01-6.41
		l1.56,1.15c3.52-10.58,14.88-20.69,15.15-26.12c1.86-3.56,2.92-1.19,4.55-3.01c-0.72-0.53-1.54-0.3-2.36-0.04
		c0.81-3.1,12.42-13.25,5.47-8.36c3.31-4.9,6.4-5.12,6.96-8.96c-1.68,2.41-3.01,1.61-1.67-0.98c-0.11,2.01,1.27,1.86,2.97-1.18
		c-0.34-1.58,0.8-4.07,1.54-6.34c-0.2,3.77,3.97-4.38,4.38-6.14c-0.61,0.77-1.27,2.11-1.84,1.84c1.04-2.28,3.28-8.73,5.69-9.69
		c0.41,1.08-2.34,4.2-1.38,4.92c3.15-3.11,2.05-5.23,3.89-9.25c4.54,0.13,2.93-12.42,7.88-11.45c-3.32,3.97-3.76,8.36-4.48,12.09
		c-0.82,3.66-1.72,6.76-5.51,8.14c3.11,1.92-0.96,4.53-2.83,9.91c2.52-0.26,0.36,2.47,0.96,3.43c3.44-4.78,1.22-3.46,1.45-4.98
		c1.21-0.69,2.54-3.92,3.63-2.34c-0.67,1.33-1.92,3.05-1.36,3.6c2.21-4.77,4.25-6.69,6.21-6.78c1.01-3.25,2.55-5.63,4.49-8.87
		c1.79-3.32,4.06-7.46,6.67-14.05c0-2.63-2.56,0.72-1.24-3.38c9.71-13.82,11.24-29.51,16.55-41.1c-0.96-3.09-4.3,0.91-2.36-4.85
		c1.92-2.63,2.86-1.37,4.1,0.09c1.52-11.72,7.72-17.57,11.1-29.68c-3.8-6.44,5.61-21.92,3.19-30.4c-0.5,5.84-2.33,13.16-5.23,15.52
		c-1.09-5.14,1.71-19.44,5.54-16.74c-0.62-7.13,5.6-11.89,2.25-14.88c4.67-0.54,6.77-14.75,6.58-23.02c0.02,1.23,1-1.73,1.38-4.9
		c0.97-8.26,2.36-17.44,3.32-26.52c0.36-7.12,0.32-14.16-0.28-20.63c0.71-0.03,1.47,0.04,2.33,0.36c-0.57-7.8-1.1-15.48-1.64-23.12
		c0.16,0.13,0.34,0.22,0.65,0.07c-1.08-3.79-0.75-5.21-1.29-8.76c-0.19-2.58-0.41-5.15-0.61-7.71c1.29-3.21,2.32-9.04,2.56-12.26
		c0.14,2.48,1.85,1.48,1.54,4.92c-0.94,5.46-0.55,12.28,1.9,16.25c-0.43,2.61-1.08,2.66-1.98,1.28c1.63,14.66-0.45,25.56,2.31,38.99
		c-2.24-3.36-2.26,12.31,0.15,8.86c-1.84,8.48-3.73,19.33-4.76,30.09c-0.54,5.38-0.9,10.73-1.02,15.76c-0.06,2.51-0.06,4.94,0,7.25
		c-0.08,2.28-0.08,4.45,0.01,6.45c0.83-6.23,4.51-17.21,2.73-22.83c2.37,3.3,1.27-5.5,0.29-6.38l1.92,0.24
		C1038.87,582.33,1039.28,553.51,1039.59,525.71z M857.17,173.03c2.22-1.06,3.62,2.27,4.44,4.03
		C860.36,177.97,857.46,173.8,857.17,173.03z M322.25,958.18c0.23-3.39,5.55,1.55,6.04,0.66
		C330.96,961.31,324.99,959.91,322.25,958.18z M359.21,979.87c1.61-3.34,3.59,1.09,8.01,2.12
		C366.31,983.2,361.64,980.31,359.21,979.87z M368.48,970.1c0.54-1.68,5.57,0.33,6.71,1.66C374.64,973.07,370.5,970.42,368.48,970.1
		z M448.39,1002.89c1.1-0.35,2.73-0.31,4.75,0.02c-0.22,0.91-0.41,1.8,0.95,2.1C453,1006.36,446.74,1004.59,448.39,1002.89z
		 M485.75,1010.09c-0.78-1.81,2.41-1.19,2.47-2.47c-9.29-2.25-19.02-0.88-21.95-6.16c8.02,2.26,11.31,0.46,17.57-0.53
		c1.51,0.72,2.19,1.86,4.56,2.16c-1.81,1.42-2.9,0.85-5.86,0.36c0.87,2.51,3.99,3.93,9.21,4.32
		C492.5,1010.2,489.78,1010.55,485.75,1010.09z M990.83,651.92c1.42,0.13-0.75,4.19-0.84,5.96c-0.39-0.64-0.77-1.3-0.94-2.18
		c0.45-1.04,0.89-2.07,1.32-3.12C990.52,652.53,990.67,652.38,990.83,651.92z M980.41,735.46c-2.63,4.38-1.89,3.84-4.19,8.99
		c-1.88,1.46-3.89-0.65-1.39-4.64C976.8,744.72,976.83,734.69,980.41,735.46z M667.55,975.05c-0.34,1.6-5.97,2.63-8.56,3.61
		C660.03,975.17,662.99,976.5,667.55,975.05z M607.07,1002.09c-6.57,0.61-9.62-0.34-16.92-0.5c3.39-3.4,10.29-1.9,17.16-4.13
		C607.25,999.01,605.97,1000.15,607.07,1002.09z M571.26,1002.53c-0.88,2.21-3.96,0.09-4.73-0.19c-0.55-1.47,3.26-0.95,3.24-2.2
		C573.85,999.71,567.17,1002.96,571.26,1002.53z M585.38,1001.69c-0.54,1.6-3.59,2.3-4.15,3.91c-1.86-1.67-10.05,1.46-10.88-0.99
		C575.72,1005.75,579.23,1001.22,585.38,1001.69z M576.67,992.45c-3.7,0.88-7.11,2.13-13.3,2.97c-2.68-3.31,2.68-4.48,9.39-6.15
		c6.72-1.54,14.92-2.62,18.12-3.52c5.02,0.93,6.43,3.37-0.23,5.28c0.14-0.55,1.03-0.81,0.91-1.45
		C584.34,990.71,580.37,991.52,576.67,992.45z M565.44,1003.06c-8.44,2.19-28.22,2.3-23.51-1.1
		C547.96,1004.35,555.68,1001.05,565.44,1003.06z M597.12,988.02c-0.68-1.62,2.03-2.02,4.13-2.66
		C601.53,987.08,599.27,988.84,597.12,988.02z M605.7,968.42c-7.86,1.18-15.79,1.92-21.9,2.76c-2.63,1.08,1.34,2.69,3.71,2.02
		c-0.8,1.98-4.67,0.57-6.56,1.05c-0.31-1.13,1.12-1.56,0.68-2.73c-0.7-1.35-5.4,0.58-7.7,0.54c6.95-4.24,14.22-5.76,22.61-6.79
		c4.2-0.45,8.66-0.93,13.46-1.44c4.75-0.79,9.8-1.97,15.22-3.5c0.15,0.9,0.3,1.8,1.57,1.58c-2.8,1.47-6.11,2.76-9.69,3.91
		c-1.79,0.57-3.65,1.11-5.54,1.61C609.62,967.77,607.66,968.09,605.7,968.42z M346.33,891.58c0.45-0.08,1,0,1.42,0.2
		c0,0,0.01,0,0.01,0.01c-0.05,0.15-0.03,0.3-0.14,0.46c-1.44-0.28-2.13-0.47-2.51-0.66C345.53,891.58,345.9,891.66,346.33,891.58z
		 M285.03,865.58c-0.33,0.3-0.67,0.6-1,0.9c-0.31-0.16-0.62-0.31-0.92-0.47c0.16-0.23,0.33-0.47,0.49-0.7
		c0.16-0.23,0.33-0.47,0.49-0.7h0l0,0C284.4,864.94,284.72,865.26,285.03,865.58z M480.29,152.98c-0.82,0.81-2.1,1.29-4.15,1.46
		c-0.29,0.02-0.59,0-0.88,0.02c-0.86-0.3-2.24-0.11-3.55,0.05C474.42,153.04,477.31,152.72,480.29,152.98z M1012.02,408.42
		c0.83,2.85,0.17,4.07-0.58,5.17c-0.91-3.4-1.16-7.03-2.24-10.41c0.04-0.66,0.13-1.27,0.29-1.79
		C1011.62,408.62,1008.77,408,1012.02,408.42z M1013.58,414.45c0.41,2.21,0.75,3.85,1.08,5.24c-0.16-0.04-0.26-0.15-0.43-0.18
		c-0.46-0.58-0.83-1.19-1.18-1.8C1012.46,415.77,1012.03,414.01,1013.58,414.45z M1009.42,575.94c0.13-1.69-0.18-2.69-0.72-3.31
		c0.21-2.84,0.6-5.47,1.23-7.47c0.44,0.78,0.84,1.61,1.24,2.46c0.16-1.16-0.27-2.83-0.43-4.33c0.09-0.17,0.16-0.41,0.26-0.56
		c-0.11-0.32-0.16-0.72-0.26-1.05c0.1-0.54,0.33-0.99,0.78-1.27c0.17,2.3,1.75,2.25,1,6.07
		C1008.14,571.17,1010.99,568.55,1009.42,575.94z M608.62,159.53c-0.75,0.13-1.15-0.05-1.4-0.35c0.49-0.13,1-0.24,1.49-0.37
		C608.73,159.09,608.68,159.52,608.62,159.53z M919.49,282.72c-1.95-0.14-3.68-0.65-3.82-3.12c0-0.04,0-0.08,0-0.12
		C917.01,280.47,918.31,281.52,919.49,282.72z M1008.21,538.65c-0.15-1.94-0.31-3.89-0.47-5.84c0.06-0.16,0.13-0.32,0.18-0.49
		c0.45-1.47,1.78-2.69,3-3.91c0.02,2.02,0.04,4.02,0.05,6c0.13,4.42,0.45,8.69,1.11,12.76c-1.02,0.11-2.24-0.19-2.04,2.38
		c0.96,0.22,2.41-0.4,2.54,1.24c-0.45,3.61-1.26,6.51-2.37,8.77C1008.87,553.69,1008.5,546.35,1008.21,538.65z M1010.59,521.54
		c0.02,0.33,0.03,0.65,0.05,0.98C1010.51,522.19,1010.5,521.87,1010.59,521.54z M947.27,312.84c-1.43-1.54-1.18-3.66,0.68-5.09
		c0.13-0.1,0.32-0.12,0.5-0.15c2.13,2.61,4.12,5.58,5.99,8.93C951.75,317.01,950.21,316.01,947.27,312.84z M945.13,303.92
		c-2.22-0.63-3.68-2.09-4.45-4.28C942.2,300.95,943.69,302.39,945.13,303.92z M1008.62,573.72c0.23,1.47,0.14,3.04-0.14,4.68
		C1008.49,576.83,1008.53,575.27,1008.62,573.72z M1023.05,461.54c0.33-0.95,0.79-1.88,1.28-2.82c0.05,2.07-0.23,3.82-1.04,4.46
		C1023.24,462.67,1023.13,462.09,1023.05,461.54z M1021.55,449.57c0.02-0.41-0.03-0.92,0.05-1.25c0.44,0.5,0.85,1.39,1.23,2.42
		C1022.46,450.46,1022.04,450.07,1021.55,449.57z M1017.66,436.43c-1.58,3.5,0.68,7.7,1.86,7.23c-0.18,1.57-0.59,2.13-1.12,2.2
		c-0.54-0.69-1.05-1.38-1.56-2.08c-0.12-0.45-0.2-0.9-0.32-1.35c-0.63-0.77-1.3-1.42-1.97-2.05c-0.42-0.68-0.76-1.28-0.9-1.64
		c-0.5-1.29,0.97-3.01,2.6-2.86c0.41,0.04,0.82,0.15,1.23,0.28C1017.55,436.25,1017.59,436.34,1017.66,436.43z M1008.61,401.58
		c-0.05-0.11-0.08-0.23-0.13-0.35c-0.22-0.5-0.23-0.93-0.15-1.35C1008.43,400.47,1008.52,401.04,1008.61,401.58z M487.68,154.52
		c-0.73-0.05-1.39-0.24-1.96-0.55C486.37,154.14,487.03,154.32,487.68,154.52z M642.59,976.45c0.94,2.76-3.42,0.63-6.46,2.4
		C637.25,976.9,639.63,976.73,642.59,976.45z M892.52,856.65c1.25,2.14-3.33,3.55-6.01,7.7c-0.78-0.87-2.02,0.21-2.76-0.8
		C886.75,860.98,889.79,858.14,892.52,856.65z M898.45,848.94c0.64,0.66,1.29,1.31,2.31,0.31c1.47,1.18-3.36,6.15-5.15,6.82
		C894.76,854.38,895.88,851.94,898.45,848.94z M992.86,646c0.22,0.14,0.48,0.23,0.68,0.4c-0.74,1.75-1.06,1.92-1.43,1.64
		C992.36,647.36,992.62,646.68,992.86,646z M1006.9,597.56c-0.08-0.96-0.18-1.91-0.32-2.75c0.36-0.37,0.75-0.65,1.16-0.87
		C1007.67,595.09,1007.33,596.31,1006.9,597.56z M1009.25,589.72c-0.25-1.52-0.45-3.49-0.58-5.64c0.39-1.74,0.85-3.38,1.87-5.65
		c-0.31,5.38-0.81,7.19-0.62,11.15C1009.69,589.64,1009.48,589.73,1009.25,589.72z M1024.68,483.91c0.63-2.94,0.8-5.98,0.27-9.64
		c3.56,1.42,2.08,10.01,0.22,13.03C1025.02,486.17,1024.84,485.04,1024.68,483.91z M1023.67,465.65c1.14,1.38,1.85,4.06,2.38,7.21
		C1023.78,474.24,1022.97,467.67,1023.67,465.65z M1014.5,405.14l-2.49,0.7c-0.93-2.03,0.5-5.53-1.6-6.02
		c-0.46-4.17,1.59,0.99,2.19,0.66c0.32-1.59-0.52-2.55-1.58-3.71c0.44-0.37,0.85-0.75,1.2-1.17
		C1013.83,398.18,1014.97,401.27,1014.5,405.14z M1009.57,384.4c-0.84-0.1-1.26-2.29-1.78-4.02c0.07,0,0.13,0.01,0.2,0
		c0.61-0.06,1.11-0.53,1.51-1.1C1011.16,382.71,1009.31,382.45,1009.57,384.4z M999.08,372.4c0.25-0.17,0.84-0.07,1.14,0.13
		c2.19,1.43,3.68,3.27,4.21,6c0.25,1.27,1.32,1.78,2.55,1.86c0.21,0.98,0.38,2.07,0.42,3.42c-0.62,0.18-0.47,1.21-0.91,1.59
		c-1.59-5.57-4.66-3.62-0.95-0.99c0.15,0.77,0.29,1.55,0.44,2.33c-2.06-0.05-4.11-0.11-6.15-0.33c-0.58-0.06-1.56-1.63-1.41-2.27
		c0.43-1.81,2.16-3.65,1.87-5.2c-0.32-1.73-2.55-3.06-2.07-5.34C998.32,373.14,998.69,372.65,999.08,372.4z M977.33,332.02
		c-0.75-0.37-1.5-0.71-2.29-0.29c-0.48-1.12-0.97-2.07-1.46-2.93c-0.13-0.79-0.2-1.58-0.26-2.38
		C974.57,328.16,976.03,330.2,977.33,332.02z M894.3,218.25c0.48,0.56,0.97,1.14,1.45,1.7c-0.1,0.18-0.15,0.38-0.29,0.55
		c-2.67-0.53-3.94-4.06-5.55-7.4C891.34,214.83,892.77,216.56,894.3,218.25z M850.06,204.11c0.24,0.15,0.39,0.44,0.53,0.76
		c-0.52-0.2-1.06-0.42-1.59-0.64C849.22,203.95,849.63,203.83,850.06,204.11z M462.83,155.71c0.02,0.51,0.04,1.03,0.05,1.56
		c1.24,0,1.97-0.67,2.41-1.6c2.05,0.01,4.14,0.08,6.29,0.13c-0.78,1.65-2.29,2.73-3.77,3.71c-2.47,1.63-4.18,0.65-5.04-1.95
		c-0.87,0.29-1.79,0.51-2.6,0.92c-4.01,2.07-5.46,2.02-7.62-0.75c-0.08-0.1-0.13-0.22-0.2-0.32
		C455.82,156.25,459.28,155.81,462.83,155.71z M433.06,160.39c3.54-0.68,6.88-0.96,9.88-0.98c-0.76,0.66-1.76,1.12-3.37,1.08
		c-0.96-0.03-2.37,0.03-2.84,0.63c-3.43,4.38-8.95,0.74-12.74,3.48c-2.66,1.93-4.16,0.95-5.48-0.56
		C423.39,162.4,428.41,161.24,433.06,160.39z M179.4,774.19c-0.42-0.09-0.85-1.54-0.74-2.28c0.06-0.39,0.27-0.76,0.53-1.12
		c0.26-0.36,0.56-0.72,0.8-1.08c0,0,0,0,0,0c0,0,0,0,0,0c0.4,0.74,1.01,1.45,1.13,2.23C181.31,773.13,181.17,774.58,179.4,774.19z
		 M193.4,812.54c-0.17,0.67-1.04,1.15-1.59,1.72c-0.32-0.36-0.89-0.69-0.93-1.08c-0.16-1.36-0.17-2.73-0.22-4.1
		c-0.07,0-0.12-0.03-0.2-0.03c-0.01-0.1-0.02-0.2-0.03-0.3c-0.68-0.31-1.38-0.6-2.02-1c-0.12-0.07,0.05-0.97,0.16-0.98
		c1.66-0.23,1.76,0.88,1.86,1.98c0.07,0.03,0.15,0.07,0.22,0.11c0,0.07,0.01,0.15,0.01,0.22
		C192.89,809.12,193.98,810.23,193.4,812.54z M202.61,820.94C202.61,820.94,202.61,820.94,202.61,820.94L202.61,820.94
		c-0.78-0.46-1.56-0.93-2.33-1.39c0.83-0.43,1.67-1.21,2.49-1.18c0.83,0.03,1.64,0.86,2.46,1.34
		C204.35,820.12,203.48,820.53,202.61,820.94z M208.76,827.51c-0.08,1.12-0.16,2.26-1.88,1.97c-0.11-0.02-0.27-0.93-0.16-1.01
		C207.37,828.09,208.07,827.81,208.76,827.51c0.01-0.11,0.02-0.21,0.03-0.32c0.08,0.01,0.13-0.02,0.2-0.02
		c-0.09-1.82-0.3-3.67,1.24-5.12c0.9-0.85,3.89-0.82,3.84,0.03c-0.05,0.76-0.28,1.66-0.76,2.22c-1.15,1.35-2.16,3.05-4.32,2.87
		c0,0.07,0.01,0.15,0.01,0.22C208.92,827.43,208.84,827.47,208.76,827.51z M220.87,830.33c-2.15,4.89-6.63,8.64-7.12,14.4
		c-0.03,0.29-1.81,0.77-2.6,0.55c-0.75-0.21-1.92-1.4-1.8-1.88c1.45-5.76,3.99-11.05,7.54-15.81c0.31-0.41,1.87,0,2.8,0.23
		c0.02,0,0.03,0.03,0.05,0.04c0.26,0.23,0.47,0.46,0.74,0.68c0.09,0.12,0.18,0.24,0.27,0.34
		C220.8,829.37,221.04,829.94,220.87,830.33z M266.54,868.22c-0.51,1.12-1.29,1.58-2.42,1.2c0.32-1.01,0.95-1.84,2.4-2.07
		c2.61-0.42,3.72,1.21,3.45,3.5c-0.03,0.28,0.06,0.47,0.05,0.72C269.19,870.7,268.19,869.63,266.54,868.22z M285.57,872.97
		c-0.03,0.11-0.06,0.22-0.1,0.32l-0.22-0.21C285.35,873.04,285.46,873.01,285.57,872.97c0.07-0.22,0.14-0.44,0.21-0.67
		c0.21,0.13,0.43,0.26,0.64,0.38C286.13,872.78,285.85,872.87,285.57,872.97z M388.67,953.35c-9.43-4.34-18.7-8.66-29.9-10.72
		c-3.68-1.7-7.22-4.01-11.16-6.52c-0.41-0.29-0.85-0.57-1.28-0.86c1.75,0.4,3.48,0.79,5.17,1.12c4.21,0.91,8.22,1.81,12.3,3.04
		c4.13,1.1,8.37,2.45,12.99,4.49c7.7-3.45,18.61,10.25,25.93,9.2c-2.9-4.67,9.45-0.87,16.56-0.03c-1.13,2.04-0.33,4.73,0.15,8.48
		C408.11,960.52,398.3,956.92,388.67,953.35z M531.37,977.3c2.28-1.42,3.68,1.49,7.79,0.86c-0.08-0.63-1.39-0.42-2.25-0.52
		c0.19-0.94,3.27-0.41,3.22-1.48c-1.26-1.4-6.92,0.14-9.92-0.1c4.49-3.24,15.68-2.97,19.39-5c1.8,1.27,1.08,3.46,0.35,3.86
		c1.19,2.11,2.46-0.07,4.52,1.01c2.98-1.03-3.59-1.1-2.51-3.08c8.4-0.58,10.37,0.11,14.02-2.23c3.57,0.53-0.04,1.11,6.58-0.3
		c1.17,4.33-6.83,2.11-9.46,3.74c4.05,2.77,13.84-4.37,14.46,0.07c-3.43,0.35-7.03,1.11-10.77,1.89c-3.76,0.55-7.66,1.13-11.59,1.71
		C547.3,978.75,539.08,979.25,531.37,977.3z M533.86,1003.7c-1.06,2.01,2.66,1.01,4.74,1.04c-3.81,1.05-10.06,1.35-17.03,1.61
		c-6.98-0.2-14.69-0.6-21.55-0.16C508.2,1001.4,521.52,1005.95,533.86,1003.7z M496.46,1007.98c6.64,1.05,8.26,0.63,15.32,1.22
		c-6.63-3.28,14.69-1.58,16.48-0.05c-5.53,1.82-12.16,1.43-18.34,1.08c-6.19-0.31-11.94-0.58-15.91,0.88
		C493.06,1009,495.93,1009.19,496.46,1007.98z M492.76,1013.65c1.01-2.22,4.17-0.57,5.95,0.25
		C498.37,1015.4,493.46,1014.05,492.76,1013.65z M573.24,1017.26l-0.27-2.03c-0.54,0.13-1.05,0.25-1.6,0.39
		c-2.6,0.43-5.3,0.8-8.07,1.16c-5.55,0.71-11.4,1.3-17.41,1.71c-12.01,0.71-24.61,1.33-36.44-0.95c-1.3,0.12-0.81,1.26-2.4,1.22
		c-2.8-0.32-4.96-0.97-7.2-1.58c0.3-1.99,5.97-0.85,9.6-0.93c0.09-0.92,0.18-1.82-1.2-1.98c11.61-0.28,32.54-0.21,49.64-4.86
		c3.91,0.44,7.6,1.02,9.83,2.56c3.4-0.79-0.96-2.01-0.39-3.2c2.94-0.63,5.74,1.93,7.14-0.17c3.51,0.04,1.47,0.75,1.54,2.38
		c5.84-1.86,10.06-3.32,13.96-3.46c0.84-2.32-3.83-0.41-6.1-0.35c3.33-2.8,11.71-3.24,15.27-2.43c1.36,2.28-4.74,5.08,2.04,4.25
		c-4.83,3.1-19.12,0.87-21.23,4.02c9.27,0.2,24.86-4.64,30.32-1.61C598.07,1016.32,586.71,1014.32,573.24,1017.26z M627.74,1001.75
		c-0.13-1.16-1.75-0.95-1.78-2.21c4.43-1.8,3.95,0.98,8.39-0.84C633.47,1000.05,629.62,1000.66,627.74,1001.75z M659.07,990.04
		c-14.11,2.21-26.27,5.89-40.64,8.74c0.45,1.12,3.98-0.6,4.89,0.09c0.31,2.02-6.75,2.99-7.06,0.98c-3,1.85-3.13,2.42-1.34,4.82
		c-5.31-1.35-6.43-3.02-4.55-4.52c1.87-1.55,6.79-2.63,13.49-4.09c-1.2-0.68-3.89,0.03-6.01,0.2c-1.02-1.85,5.1-1.8,5.23-3.33
		c1.59-0.2,1.34,1.34,1.76,2.21c10.92-3.5,11.66-4.01,23.55-7.55c2.24,1.94,5.76-1.56,8.73,0.29c2.91-1.41-3.9-0.42-0.81-2.46
		c8.13-1.65,7.9,0.14,16.05-3.89c-0.44-1.79-6.97,3.38-6.17,0.19c5.43-0.88,9.25-2.9,12.97-5.46c0.88,1.27,0.71,2.39,0.06,3.43
		c2.98-0.9,3.3-2.18,2.38-3.64c5.32-2.73,7.19-1.43,9.76-0.91C687.25,981.7,665.69,985.01,659.07,990.04z M765.07,961.5
		c-0.15-3.37,4.68-3.63,7.31-6.73C773.37,956.79,767.27,959.28,765.07,961.5z M798.74,954.35c-1.98,4.75-1.8-0.9-4.97,1.6
		c-0.17-0.93,2.34-2.1,3.86-3.19c0.43,0.81,0.86,1.63,2.17,0.93C800.01,954.42,798.93,954.65,798.74,954.35z M794.9,944.55
		l4.14-2.63l1.13,1.58C798.02,944.54,795.56,946.14,794.9,944.55z M799.69,940.73c-0.85-1.41,2.53-3.45,5.12-5.39l1.16,1.56
		C803.59,938.76,801.29,940.5,799.69,940.73z M797.95,937.63c-6.4,4.42-12.93,8.53-16.24,11.38c0.41-2.64,5.87-6.82,12.46-11.29
		c6.51-4.57,13.73-10.09,18.57-14C810.05,927.7,804.06,932.8,797.95,937.63z M843.31,927.96c-2.25-1.42-2.56-1.39-1.97-4.21
		C843.7,923.6,847.38,924.68,843.31,927.96z M846.98,922.62c-1.06,0.01-2.7,1.27-3.25,0.08c1.15-0.38,2.28-0.78,1.97-1.54
		c1.11-0.79,1.48,0.39,2.72-0.71c-0.15,0.84-0.27,1.67,0.34,2.3C847.57,923.57,845.57,923.91,846.98,922.62z M864.47,913.74
		c-0.31-0.91,1.98-2.55,3.29-3.91c-0.68-0.4-2.07,1.17-3.24,2.11c-1.71-0.06,1.29-4.12-1.78-1.87c0.21-1.56,5.18-1.94,6.88-1.95
		C866.47,911.32,868.57,911.51,864.47,913.74z M886.56,875.86l1.45,1.3l-4.18,4.59C882.08,880.76,885.56,877.86,886.56,875.86z
		 M893.41,883.71c0.78-2.96-1.24-0.69-3.5,1.92c-0.9-2.87,5.47-5.45,8.11-7.98C898.98,878.72,894.63,881.82,893.41,883.71z
		 M897.15,867c-0.85,5.51-2.3,10.5-10.58,15.58c0.8-3.61,8.44-8.51,5.8-13.15c7.7-7.01,12.41-13.97,16.6-16.8
		C908.86,857.7,901.98,865.09,897.15,867z M919.18,841.68c-4.25,4.79-6.61,5.98-8.38,10.81l-2.55-2c5.06-4.65,8.92-12.83,14.76-18.3
		C923.08,835.86,918.1,838.27,919.18,841.68z M969.95,762.09c-2.17-0.06-0.78-2.75-2.95-2.81c1.88-1.18,3.56-7.68,5.56-5.59
		c-1.34-2.57,3.31-7.3,5.31-11.23C973.98,749.78,973.53,756.99,969.95,762.09z M970.79,783.67c-0.95-0.58-1.95,0.03-2.98,1.26
		c-1.16-0.82,0.37-3.39,2.04-6.06c0.07,2.52,1.6-0.23,1.66,2.3c1.46-1.94,3.05-7.03,4.33-4.91
		C974.22,777.29,972.5,780.75,970.79,783.67z M977.58,770.04c-0.2-3.92,1.65-4.68,3.88-8.01
		C981.68,765.92,979.81,766.72,977.58,770.04z M982.05,724.14c-0.42-1.28-0.11-3.36,1.04-6.18
		C984.93,718.37,983.78,722.93,982.05,724.14z M981,706.77c-0.08-3.25,1.64-4.38,2.67-9.35C985.52,698.12,982.43,705.4,981,706.77z
		 M987.45,680.84c1.79,1.65-1.75,4.55-1.55,8.38C983.24,689.4,987,683.59,987.45,680.84z M987.15,701.16
		c-0.69-4.56,0.24-6.72,1.4-13.64c0.39,1.98-0.72,8.38,2.07,1.92C992.72,691.85,988.32,696.86,987.15,701.16z M996.4,648.27
		c-2.5,11.86-1.39,16.34-1.6,22.08c-0.52,2.76-2.13,0.81-2.8,3.01c3.4-1.11,1.06,7.79-0.57,13.76c-2.04-1.06-3.17-1.04-3.31-2.29
		c1.14-1,2.06-5.21,1.75-7.06c-2.34,2.92-1.08-4.04-2.57-4.48c1.05-2.29,1.64-2.19,2.21-0.64c0.83-9,5.21-19.35,5.87-28.32
		c0.7,0.33,0.91,2.4,1.89,0.41c-2.68,1.33,0.59-4.06-1.04-3.92c-0.88,1.31-1.36,0.88-1.65-0.16c0.9-2.74,1.82-5.47,2.58-8.31
		c2.38-0.81-1.15,5.15,0.55,5.11c0.96-5.26,5.59-13.27,3.3-15.28c-1.41,5.2-1.28,7.42-3.75,9.83c0.04-0.15,0.1-0.3,0.14-0.45
		c1.05-4.58,1.92-9.3,2.57-14.2c1,0.01,1.85-0.47,2.64-1.14c-0.01,0.05-0.03,0.08-0.05,0.12c1.84,2.62,1.41,5.97,0.68,9.41
		c-0.84,3.42-2.24,6.89-1.81,9.97c-1.58,2.77-2.46,2.44-3.38,3.03c1.65,2.39-0.39,13.45-1.23,15.81
		C994.71,654.68,997.71,649.07,996.4,648.27z M996.29,708.21c2.03-4.05,0.66-6.15,2.95-8.24
		C1002.39,699.43,998.42,710.52,996.29,708.21z M999.46,697.4c2.68-1.79,4.88-6.82,7.85-6.76
		C1005.02,695.07,1002.68,699.42,999.46,697.4z M1025.55,490.46c0-0.03,0.01-0.04,0.02-0.07c0,0.09,0,0.16,0.01,0.25
		C1025.56,490.58,1025.56,490.52,1025.55,490.46z M1028.45,485.09c0.56-1.89,0.6,5.24,1.3,9.88
		C1026.91,493.72,1027.54,488.08,1028.45,485.09z"/>
	<path class="st0" d="M321.2,97.24c-1.82,2.85-13.67,6.53-14.35,7.8C309.44,104.67,325.05,97.81,321.2,97.24z"/>
	<path class="st0" d="M578.46,8.52c-0.79-1.5-7.13-0.66-7.56-2.03c8.1-1.75,13.3,3.79,21.48,4.56c0.28-0.73-0.02-1.86,1.48-1.75
		c1.19,1.04,1.88,2.24,3.53,3.11c8.68-0.38,24.83,4.76,32.08,2.5c-1.86-1.46-9.28-2.08-4.61-3.56c-6.3-1.28-1.05,1.79-4.26,1.94
		c-0.19-0.54-0.94-0.91-2.44-1.04c2.29-2.6-8.32-1.79-12.49-3.86c-3.25,0.39,2.06,2.27-1.61,2.38c-2.59-2.55-7.85-3.73-7.64-1.1
		c0.8-0.88-10.21-1.12-6.18-2.82c-13.71-1.33-12.27-2.69-23.06-2.49c1,2.35,0.07,1.6,1.06,3.95C573.34,7.25,575.1,9.32,578.46,8.52z
		"/>
	<path class="st0" d="M724.5,107.02c3.12,0.82,7.39,3.28,9.89,3.27C731.9,108.71,726.12,106.14,724.5,107.02z"/>
	<path class="st0" d="M771.88,109.45c-1.2,2-6.07-2.03-8.46-1.98C764.72,109.9,774.01,112.47,771.88,109.45z"/>
	<path class="st0" d="M804.75,90.01c0.58-0.91,3.22,1.55,3.97,0.91c-1.91-0.85-2.43-4.32,0.25-2.88c1.39,2.04,3.02,0.66,6.37,1.42
		c-6.23-2.04-15.28-8.12-18.05-6.99C802.02,83.34,807.67,88.74,804.75,90.01z"/>
	<path class="st0" d="M807.46,154.16c-1.61,1.32,0.76,3.13,3.48,5c-0.65-3.08,5.8,3.19,3.01-0.18c-2.37-1.66-3.63-1.17-3.33-3.28
		c0.51,0.38,1.38,0.37,0.39-0.52c-0.9,0.28-1.86,0.45-3.01,0.18C808.19,155.01,808.32,154.65,807.46,154.16z"/>
	<path class="st0" d="M815.95,162.08c5.32,6.26,11.72,16.51,18.44,17.43c-0.59-0.71-1.69-1.52-1.3-2.03
		c2.73,2.16,4.38,1.21,7.72,5.16c1.38-1.05-0.7-2.87-2.18-4.55c-4.31-1.95-19.71-12.16-18.34-15.99
		C818.85,162.11,817.02,161.25,815.95,162.08z"/>
	<path class="st0" d="M860.69,140.61c1.69,4.07,14.76,11.12,14.69,15.78c2.2,2,3.5,1.68,6.02,4.62c-1.12,0.27-2.47-0.06-3.59,0.21
		c2,1.34,4.06,2.85,6.05,4.6c1.92,1.82,3.84,3.81,5.78,5.91c3.86,4.2,7.75,8.83,11.65,13.45c7.83,9.25,15.87,18.3,23.61,24.78
		c0.79,7.91,11.5,10.08,10.47,15.83c1.04-1.92,0.45-1.47,2.55-1.99c-6.39-5-12.37-15.2-11.72-19.13c-0.22-0.15-0.2-0.43,0.33-1.05
		c-0.21,0.25-0.27,0.66-0.33,1.05c0.74,0.51,4.62-0.6,4.73,3.56c2.2,0.45-0.15-4.17,1.98-1.65c0.7,2.48,1.16,4.86,1.39,7.12
		c1.99,2.23,3.8,3.7,5.65,5.28c-0.48,0.63-1.57,0.96-0.77,2.21c2.27-3.21,4.69,4.69,5.87,6.73c0.46-3.21-4.16-8.91-3.34-11.97
		c-2.41,0.42-1.69-1.71-4.4-4.71c0.47-0.64,1.56-0.96,0.73-2.23c-1.14-0.36-2.46-5.54-6-6.73c1.36,2.35,0.9,2.81-0.7,2.26
		c-3.04-5.68-9.11-10.23-11.63-17.06c-3.11,1.95-4.95-2.7-7.86-6.71c-0.85,0.5-1.43,1.98-2.75,0.83c-1.64-2.04-0.48-3.06-0.72-4.6
		c1.38,1.73,6.01,4.75,4,1.49c-1.45,1.14-5.57-6.89-7.03-5.71c1.99,1.97,2.39,3.36,1.22,4.18c-0.94-3.44-2.82-1.05-5.68-5.17
		c-1.53,0.84-2.96,2.02-4.93,1.35c0.22-4.59-5.71-4.23-8.7-7.35c-1.29-3.63-2.46-6.78-1.49-9.54c-3.25-2.38-3.8-3.58-5.14-3.82
		c1.82,1.9,0.72,2.99,1.08,4.48c-6.75-4.25-8.34-6.56-14.11-12.75C865.23,144.45,862.83,143.52,860.69,140.61z M911.05,188.53
		c1.38,0.71,2.91,1.93,4.73,4.26c-0.7,3.29-4.62-5.32-5.3-2C909.55,189.61,910.61,189.19,911.05,188.53z"/>
	<path class="st0" d="M855.71,195.45c1.48,2.24,1.02,3.91,0.92,5.68c1.81,2.62,2.48,0.76,4.05,2.42c-0.82,0.76-0.56,1.83,0.21,3.06
		c2.24-3.83-3.69-6.67-2.69-10.41C857.58,196.8,856.39,195.15,855.71,195.45z"/>
	<path class="st0" d="M991.29,328.28c-0.46-6.54,4.23,1.92,4.69-2.17c-2.14,0.69-4.11-3.75-6.22-4.06
		C992.66,325.96,989.2,324.99,991.29,328.28z"/>
	<path class="st0" d="M993.04,350.65c-0.94-0.04-1.76-1.19-2.83-0.19c1.44,3.32,0.38,4.45,0.38,6.51c0.74-0.54,3.4,5.4,2.67,1.6
		C989.67,354.41,993.71,353.45,993.04,350.65z"/>
	<path class="st0" d="M957.71,798.13c2.25-1.53,5.63-1.15,4.76-1.66C963.39,793.09,959.11,795.19,957.71,798.13z"/>
	<path class="st0" d="M916.41,856.88c-3.16,3.89-7.11,5.65-6.98,8.94c2.22-1.39,6.68-5.47,5.86-1.76c0.73-3.18,9.84-9.12,7.37-8.73
		C920.25,857.29,913.78,862.18,916.41,856.88z"/>
	<path class="st0" d="M960.64,907.46c-0.17,1.5-0.16,1.39-0.77,6.73c3.71-5.1,7.05-10.08,4.94-12.49
		C963.73,903.49,959.38,906.77,960.64,907.46z"/>
	<path class="st0" d="M801.07,968.94c-1.74,1.38-3.33,0.95-3.26,2.04c4.45-1.3-3.67,3.35-3.3,4.34c2.89-0.89,9.85-5.62,8.38-5.99
		C798.37,972.27,800.07,970.68,801.07,968.94z"/>
	<path class="st0" d="M654.47,1028.83c1.82,0.18,4.77-0.65,5.51,0.52c-5.83,1.85-15.53,0.56-12.39,3.32c1.74-2,7.73-1.25,9.24-0.46
		c1.04-1.76,12.39-6.91,8.93-5.78C660.41,1029.17,656.22,1026.77,654.47,1028.83z"/>
	<path class="st0" d="M624.68,1030.51c0.09,3.05-4.65,6.52,0.53,7.8c-0.66-1.15,1.41-1.57,2.05-2.45c-4.01-0.68-3.5-4.5,3.85-5.63
		C631.84,1027.81,627.06,1030.22,624.68,1030.51z"/>
	<path class="st0" d="M602.78,1036.88c-2.54,1.01,2.86,2.16,2.12,4.24l-5.06,0.82l-0.59-3.18c-3.82,2.65-11.31,3.1-8.15,5.21
		c-2.06-0.72-5.25,0.32-6.23,1.6c9.77-0.58,12.22-3.37,20.28-3.19c-0.01-0.79,0.08-1.56,2.28-1.68
		C603.6,1039.56,607.18,1036.7,602.78,1036.88z"/>
	<path class="st0" d="M548.67,1073.45c2.53,0.83,8.94-0.57,6.98,2.82C565.29,1075.37,551.78,1071.1,548.67,1073.45z"/>
	<path class="st0" d="M495.8,1039.01c1.47,0.38,2.83,0.81,3.75,1.45C513.5,1039.9,498.58,1038.89,495.8,1039.01z"/>
	<path class="st0" d="M488.19,1041.91c1.07,1.95,6.82,2.72,10.06,2.38c-0.94-1.44-5.48-2.59-2.47-3.99
		c-6.73-0.75-10.74,0.03-15.12,0.59c3.67,2.39-3.73,2.21-1.42,3.16c1.66-0.8,6-0.58,7.6,0.37
		C488.51,1042.89,486.27,1042.38,488.19,1041.91z"/>
	<path class="st0" d="M470.9,1035.83c0.1,1.62-2.06,1.95-3.93,2.22c-0.22-1.38-5.48-0.89-6.13-2.1c-1.39,0.42-0.61,2.32-3.92,1.42
		c-21.66-3.38-37.83-5.39-52.87-9.8c-7.55-2-14.95-3.95-22.78-6.02c-3.91-1.06-7.92-2.16-12.12-3.3c-4.11-1.43-8.4-2.92-12.95-4.5
		c-0.78,4.28-3.89-1.97-6.36-0.86c1.33,4.08,4.17,4.36,9.67,7.48c1.65-1.63-2.74-2.36-2.85-3.72c1.64,0.59,2.71,0.61,3.77,0.62
		c-2.46,2.1,5.62,3.92,1.32,4.55c8.91,2.46,18.99,3.71,29.87,6.08c5.46,1.11,11.17,2.34,17.17,3.75c2.99,0.72,6.06,1.45,9.21,2.21
		c3.17,0.62,6.43,1.26,9.78,1.91c0.09-1.12,1.21-1.49,2.78-1.54c2.79,2.06,3.24,1.12,8.69,1.96c-1.69,1.66-1.06,2.27,2.1,3.57
		c0.3-0.72,0.02-1.85,1.49-1.74c6.51,0.95,15.11,1.28,22.67,1.02c6.75-0.28,12.68-1.6,15.68-2.81
		C478.86,1036.75,473.79,1035.66,470.9,1035.83z"/>
	<path class="st0" d="M311.27,930.1c4.37,1.65,9.18,4.93,4.2,4.15c2.37,1.81,5.47,3.9,7.37,2.77c3.15,2.98,3.51,7.81,8.36,8.91
		c-0.35,1.08-1.01,1.76-2.03,1.91c3.55,1.13,5.45-0.01,8.42,0.34c1.87,1.15-0.12,2.7,3.39,3.68c1.61-1.15,7.36,0.27,12.78,2.38
		c-0.34,0.33-0.63,0.65-0.66,1c-0.07,0.83,0.5,1.71,0.79,2.56c0.5-0.53,1.37-1.04,1.41-1.6c0.03-0.47-0.11-0.96-0.29-1.46
		c6.01,2.48,11.15,5.67,8.98,6.92c3.13,0.79,6.26,2.02,9.32,3.27c-0.02,0-0.04,0-0.06,0c-0.41,0.04-0.78,0.59-1.14,0.93
		c-0.66,0.63-0.42,1.54,0.89,1.87c2.78,0.7,6.02-0.16,8.21,2.49c2.6-1.86,4.81-1.02,7.45,0.36c1.51,0.79,2.67-0.01,3.27-1.62
		c0.2-0.06,0.42-0.05,0.62-0.12c-0.16-0.08-0.29-0.18-0.45-0.26c0.14-0.5,0.18-1.1,0.2-1.73c1.91,0.36,4.01,0.89,4.33-0.3
		c-1.39-0.29-2.87-0.61-4.33-0.92c-0.21-1.36-0.81-3.29-1.62-2.75c-1.1,0.75-2.23,1.2-3.37,1.54c-1.04-0.26-2.06-0.49-3.11-0.8
		c-4.21-1.41-8.51-2.94-12.72-4.48c-8.41-3.13-16.51-6.15-22.8-8.49c0.78-0.53,1.64-0.96,2.79-1.05c3.17,0.98,4.33,4.29,6.32,2.29
		c-3.29-1.11-4.77-2.56-6.92-3.88c-1.71,1.48-4.71,0.75-7.71-0.39c-2.94-1.29-5.94-2.87-7.91-2.65c1.63-0.18,2.21-1.6,1.23-2.99
		c-4.38-1.48-10-4.7-12.33-7.9c0.61-0.73,2.1-0.21,2.79-0.83C320.54,930.21,317.81,931.38,311.27,930.1z"/>
	<path class="st0" d="M339.84,981.13c6.13,0.69,11.4,1.28,17.17,5.5c0.33-0.83-0.09-1.53-0.52-2.24c1.93,0.71,3.05,0.55,3.77-0.04
		c-7.1-1.6-10.38-3.39-17.28-4.82C350.34,982.07,341.61,981.17,339.84,981.13z"/>
	<path class="st0" d="M328.76,973.29c-1.91-0.82-3.33-1.69-4.1-2.59c-1.91,1.21,3.68,6.36,2.29,3.89
		C323.92,972.81,328.98,974.42,328.76,973.29z"/>
	<path class="st0" d="M303.44,977.2c-2.95,3.61,10.05,6.46,10.5,9.9l0.49-1.19c0.7,0.28,1.37,0.53,1.37-0.08
		c-2.56-1.58-6.36-3.06-10.94-5.81C305.17,979.05,305.93,978.05,303.44,977.2z"/>
	<path class="st0" d="M265.61,1006.33c1.19,0.13,5.06-0.89,2.62-2.31c-3.1,0.93-4.61-1.39-7.06-0.72c1.98,1.15,2.8,2.02,2.96,3.02
		c-4.2-1.06-3.98-2.02-8.16-4.53c-0.83,0.93,0.64,2.02-0.03,2.97c-3.58-3.16-7.23-2.7-10.18-3.71c3.47,1.84,2.89,3.39,6.37,5.23
		c4.41-0.47,7.26,2.3,15.38,5.3c0.2-1.32,2.19-0.36,3.26-0.58C267.71,1009.44,267.07,1007.89,265.61,1006.33z"/>
	<path class="st0" d="M297.29,885.79c2.63,0.59,3.6,3.83,4.46,2.66c-3.88-2.6-1.67-3.22-1.93-4.92
		C297.74,884.08,297.33,883.45,297.29,885.79z"/>
	<path class="st0" d="M831.84,107.07c4.44,3.62,6.49,2.61,9.78,4c2.61,2.62,2.73,4.81,4.28,7.23c2.49,0.87,5.19,3.12,8.24,5.71
		c2.9,2.79,6.14,5.93,9.97,8.41c-4.9-3.86-4.6-6.39-5.73-9.31c-4.51-1.79-6.18-4.7-10.31-5.59c0.78-0.93,0.02-1.7-1.67-2.07
		c1.11-1.17,2.06-2.37-0.16-4.14c-3.34-0.23-8.24-3.53-11.6-3.78c-0.54-1.47-0.58-2.85-1.64-4.41c-0.46,0.76-1.3,0.81-2.13,0.85
		C832.78,105.26,832.93,106.27,831.84,107.07z"/>
	<path class="st0" d="M364.47,1027.73c-2.53-1.81-5.47-3.61-8.64-5.22c-6.35-3.22-13.65-5.68-20.68-5.94
		c-0.45,5.35-5.68,5.74-12.59,4.34c1.49-2.89-6.22-4.77-6.95-7.44c-0.58,2.79-4.87-0.25-4.71,1.41c-0.33-1.17-1.28-2.31-2.85-3.43
		c-0.85,3.12-8.12-1.5-12.83-3.1c-0.85,2.27,0.62,2.32-1.54,3.57c4.76,4.43,16.65,10.36,20.45,12.74
		c12.36,0.91,25.63,15.36,41.34,18.93c10.49,2.32,17.42-2.29,15.29-10.97C369.22,1031.06,367.02,1029.49,364.47,1027.73z"/>
</g>
</svg>
