<?xml version="1.0" encoding="utf-8"?>
<!-- Generator: Adobe Illustrator 26.0.3, SVG Export Plug-In . SVG Version: 6.00 Build 0)  -->
<svg version="1.1" id="Layer_1" xmlns="http://www.w3.org/2000/svg" xmlns:xlink="http://www.w3.org/1999/xlink" x="0px" y="0px"
	 viewBox="0 0 1080 1080" style="enable-background:new 0 0 1080 1080;" xml:space="preserve">
<path d="M872.89,585.97c-12.9-29.81-34.57-61.94-64.99-96.38c-30.47,31.14-85.93,87.77-91.78,93.44
	c-8.11,7.85-30.36,37.95-35.2,48.02c-4.84,10.08-0.52,33.76,7.46,54.04c7.98,20.28-1.57,49.99-15.31,74.72
	c-13.74,24.73-22.77,36.9-49.99,62.29c-27.22,25.39-48.42,35.33-63.33,43.97c-14.92,8.64-63.59,24.86-85.97,27.09
	c-22.38,2.22-58.1,3.14-81.65-25.12c-23.55-28.26-18.32-75.9-2.62-127.71c15.7-51.82,68.83-112.27,105.73-140.28
	c36.9-28,76.68-23.29,118.55-12.56c41.87,10.73,121.96-76.42,151.01-103.9c8.98-8.5,20.29-19.57,32.52-31.74
	c29.28-44.47,43.94-92.69,43.94-144.68c0-85.82-28.32-156.2-84.97-211.13c-56.65-54.92-129.11-82.4-217.39-82.4
	c-87.3,0-159.15,27.59-215.55,82.76c-56.41,55.17-84.6,125.19-84.6,210.03c0,50.66,13.45,97.32,40.35,139.99
	c42.02-33.3,82.88-62.31,91.6-82.39c9.14-21.05-6.75-47.07,33.43-76.51c40.18-29.44,208.7-134.42,224.9-139.68
	c11.74-3.81-12.03,15.21-24.14,23.97c-12.11,8.76-66.33,50.91-69.94,53.02c-3.61,2.11-93.94,68.45-99.59,72.37
	c-17.53,12.19-3.62,19.68,2.67,16.06c6.84-3.93,61.13-45.4,67.06-48.94c5.94-3.55,79.74-53.38,87.14-57.74
	c7.41-4.35,50.78-34.17,52.68-35.03c1.9-0.86,6.93,0.98,2.16,4.99c-4.77,4.01-50.82,39.18-55.43,42.92
	c-4.61,3.74-85.16,66.32-96.9,74.8c-11.73,8.47-44.93,31.81-47.31,35.36c-2.38,3.56-0.02,13.05,10.95,6.33
	c10.97-6.72,66.35-46.34,76.65-53.15c10.31-6.81,124.57-83.34,128.51-84.8c3.94-1.46,5.45,0.96,1.61,4.13
	c-3.85,3.17-47.45,37.54-54.2,43.18c-6.75,5.63-46.79,36.45-61.65,47.86c-14.87,11.41-83.16,60.68-84.21,64.43
	c-1.05,3.75,2.21,10.49,9.57,5.28c7.36-5.21,49.34-34.22,49.34-34.22S674.28,224.6,678.36,223.33c4.08-1.27,6.88,0.49,2.89,4.65
	c-3.99,4.17-34.96,29.69-38.48,32.91c-3.52,3.22-54.13,44.46-56.12,46.54s-52.63,44.08-56.1,46.38
	c-3.47,2.29-58.5,47.72-74.68,53.01c-16.19,5.29-37.85-6.66-50.18-3.35c-12.34,3.3-18.1-0.24-43.41,15.42l-13.58,8.37
	c0,0-27.15,18.91-55.63,39.67c-40.15,41.64-68.43,81.32-84.84,119.04c-16.44,37.77-24.65,81.91-24.65,132.42
	c0,99.57,33.96,182.7,101.89,249.39c67.92,66.7,152.89,100.05,254.91,100.05c101.52,0,186.24-33.35,254.17-100.05
	c67.92-66.69,101.89-149.82,101.89-249.39C896.43,666.41,888.58,622.27,872.89,585.97z"/>
</svg>
